# Blender v2.80 (sub 75) OBJ File: ''
# www.blender.org
mtllib cloud_01.mtl
o cloud_01
v -1.383820 0.576312 0.315679
v -1.383820 -0.123687 -0.584321
v -1.383820 -0.123688 0.315679
v -1.383820 0.576313 -0.584321
v -1.183820 -0.123688 0.315679
v -1.183820 -0.423687 -0.584321
v -1.183820 -0.423688 0.515679
v -1.183820 -0.123687 -0.584321
v -1.183820 0.576312 0.515679
v -1.183820 0.576312 0.315679
v -0.883820 0.576313 -0.584321
v -0.883820 -0.023687 -0.784321
v -0.883820 -0.023688 -0.584321
v -0.883820 0.776312 -0.084321
v -0.883820 0.576313 -0.084321
v -0.883820 0.776312 -0.784321
v -0.783820 0.276312 0.715679
v -0.783820 -0.423688 0.515679
v -0.783820 -0.423688 0.715679
v -0.783820 0.276312 0.515679
v -0.783820 0.776312 -0.784321
v -0.783820 -0.023687 -0.884321
v -0.783820 -0.023687 -0.784321
v -0.783820 0.876312 -0.084321
v -0.783820 0.776312 -0.084321
v -0.783820 0.876313 -0.884321
v -0.683820 -0.423688 0.815679
v -0.683820 -0.523688 0.815679
v -0.683820 -0.523688 0.915679
v -0.683820 0.176312 0.915679
v -0.683820 -0.423688 0.715679
v -0.683820 0.176312 0.815679
v -0.683820 0.276312 0.815679
v -0.683820 0.276312 0.715679
v -0.683820 0.876313 -0.884321
v -0.683820 0.276313 -0.984321
v -0.683820 0.276313 -0.884321
v -0.683820 0.976312 -0.384321
v -0.683820 0.876313 -0.384321
v -0.683820 0.976313 -0.984321
v -0.583820 0.176312 1.015679
v -0.583820 -0.523688 0.915679
v -0.583820 -0.523688 1.015679
v -0.583820 0.176312 0.915679
v -0.483820 -0.523688 1.015679
v -0.483820 -0.623688 0.615679
v -0.483820 -0.623688 1.115679
v -0.483820 -0.523688 0.815679
v -0.483820 -0.423688 0.815679
v -0.483820 -0.423688 0.615679
v -0.483820 0.076312 1.115679
v -0.483820 0.076312 1.015679
v 0.016180 -0.423687 0.115679
v 0.016180 -0.423687 -0.584321
v 0.016180 -0.123688 0.115679
v 0.016180 -0.123687 -0.584321
v 0.516180 0.276313 -0.884321
v 0.516180 0.276313 -0.984321
v 0.516180 0.876313 -0.884321
v 0.516180 0.876313 -0.384321
v 0.516180 0.976312 -0.384321
v 0.516180 0.976313 -0.984321
v 0.716180 -0.623688 1.115679
v 0.716180 -0.623688 0.615679
v 0.716180 -0.423688 0.615679
v 0.716180 0.076312 1.115679
v 0.716180 -0.423688 0.515679
v 0.716180 0.076312 1.015679
v 0.716180 0.176312 1.015679
v 0.716180 0.176312 0.815679
v 0.716180 0.276312 0.815679
v 0.716180 0.276312 0.515679
v 0.816180 -0.023688 -0.584321
v 0.816180 -0.023687 -0.884321
v 0.816180 0.576313 -0.584321
v 0.816180 0.576313 -0.084321
v 0.816180 0.876312 -0.084321
v 0.816180 0.876313 -0.884321
v 1.016180 -0.423688 0.515679
v 1.016180 -0.423687 0.115679
v 1.016180 -0.123688 0.515679
v 1.016180 -0.123688 0.115679
v 1.116180 -0.123688 0.515679
v 1.116180 -0.123688 0.415679
v 1.116180 0.576312 0.515679
v 1.116180 0.576312 0.415679
v 1.416180 -0.123688 0.415679
v 1.416180 -0.123687 -0.584321
v 1.416180 0.176312 0.415679
v 1.416180 0.176312 0.015679
v 1.416180 0.576313 0.015679
v 1.416180 0.576313 -0.584321
v 1.516180 0.176312 0.415679
v 1.516180 0.176312 0.015679
v 1.516180 0.576312 0.415679
v 1.516180 0.576313 0.015679
v 0.716180 -0.623688 1.115679
v -0.483820 0.076312 1.115679
v -0.483820 -0.623688 1.115679
v 0.716180 0.076312 1.115679
v -0.483820 -0.523688 1.015679
v -0.583820 0.176312 1.015679
v -0.583820 -0.523688 1.015679
v -0.483820 0.076312 1.015679
v 0.716180 0.076312 1.015679
v 0.716180 0.176312 1.015679
v -0.583820 -0.523688 0.915679
v -0.683820 0.176312 0.915679
v -0.683820 -0.523688 0.915679
v -0.583820 0.176312 0.915679
v 0.716180 0.176312 0.815679
v -0.683820 0.276312 0.815679
v -0.683820 0.176312 0.815679
v 0.716180 0.276312 0.815679
v -0.683820 -0.423688 0.715679
v -0.783820 0.276312 0.715679
v -0.783820 -0.423688 0.715679
v -0.683820 0.276312 0.715679
v -0.783820 -0.423688 0.515679
v -1.183820 0.576312 0.515679
v -1.183820 -0.423688 0.515679
v -0.783820 0.276312 0.515679
v 0.716180 0.276312 0.515679
v 1.016180 -0.423688 0.515679
v 0.716180 -0.423688 0.515679
v 1.016180 -0.123688 0.515679
v 1.116180 -0.123688 0.515679
v 1.116180 0.576312 0.515679
v 1.416180 -0.123688 0.415679
v 1.116180 0.576312 0.415679
v 1.116180 -0.123688 0.415679
v 1.416180 0.176312 0.415679
v 1.516180 0.176312 0.415679
v 1.516180 0.576312 0.415679
v -1.183820 -0.123688 0.315679
v -1.383820 0.576312 0.315679
v -1.383820 -0.123688 0.315679
v -1.183820 0.576312 0.315679
v -0.783820 0.776312 -0.084321
v -0.883820 0.776312 -0.084321
v -0.883820 0.576313 -0.084321
v 0.816180 0.576313 -0.084321
v -0.783820 0.876312 -0.084321
v 0.816180 0.876312 -0.084321
v 0.516180 0.876313 -0.384321
v -0.683820 0.976312 -0.384321
v -0.683820 0.876313 -0.384321
v 0.516180 0.976312 -0.384321
v -0.683820 -0.523688 0.815679
v -0.683820 -0.423688 0.815679
v -0.483820 -0.523688 0.815679
v -0.483820 -0.423688 0.815679
v -0.483820 -0.623688 0.615679
v -0.483820 -0.423688 0.615679
v 0.716180 -0.623688 0.615679
v 0.716180 -0.423688 0.615679
v 0.016180 -0.423687 0.115679
v 0.016180 -0.123688 0.115679
v 1.016180 -0.423687 0.115679
v 1.016180 -0.123688 0.115679
v 1.416180 0.176312 0.015679
v 1.416180 0.576313 0.015679
v 1.516180 0.176312 0.015679
v 1.516180 0.576313 0.015679
v -1.383820 -0.123687 -0.584321
v -1.383820 0.576313 -0.584321
v -1.183820 -0.123687 -0.584321
v -0.883820 -0.023688 -0.584321
v -1.183820 -0.423687 -0.584321
v -0.883820 0.576313 -0.584321
v 0.016180 -0.423687 -0.584321
v 0.016180 -0.123687 -0.584321
v 0.816180 -0.023688 -0.584321
v 1.416180 -0.123687 -0.584321
v 0.816180 0.576313 -0.584321
v 1.416180 0.576313 -0.584321
v -0.883820 -0.023687 -0.784321
v -0.883820 0.776312 -0.784321
v -0.783820 -0.023687 -0.784321
v -0.783820 0.776312 -0.784321
v -0.783820 -0.023687 -0.884321
v -0.783820 0.876313 -0.884321
v -0.683820 0.276313 -0.884321
v -0.683820 0.876313 -0.884321
v 0.516180 0.276313 -0.884321
v 0.816180 -0.023687 -0.884321
v 0.516180 0.876313 -0.884321
v 0.816180 0.876313 -0.884321
v -0.683820 0.276313 -0.984321
v -0.683820 0.976313 -0.984321
v 0.516180 0.276313 -0.984321
v 0.516180 0.976313 -0.984321
v -0.483820 -0.623688 0.615679
v 0.716180 -0.623688 1.115679
v -0.483820 -0.623688 1.115679
v 0.716180 -0.623688 0.615679
v -0.583820 -0.523688 0.915679
v -0.483820 -0.523688 1.015679
v -0.583820 -0.523688 1.015679
v -0.683820 -0.523688 0.815679
v -0.683820 -0.523688 0.915679
v -0.483820 -0.523688 0.815679
v -0.683820 -0.423688 0.715679
v -0.483820 -0.423688 0.815679
v -0.683820 -0.423688 0.815679
v -0.483820 -0.423688 0.615679
v -0.783820 -0.423688 0.715679
v -0.783820 -0.423688 0.515679
v 0.716180 -0.423688 0.615679
v 0.716180 -0.423688 0.515679
v 0.016180 -0.423687 0.115679
v -1.183820 -0.423688 0.515679
v 1.016180 -0.423688 0.515679
v 1.016180 -0.423687 0.115679
v -1.183820 -0.423687 -0.584321
v 0.016180 -0.423687 -0.584321
v 1.116180 -0.123688 0.415679
v 1.116180 -0.123688 0.515679
v 1.016180 -0.123688 0.515679
v 1.016180 -0.123688 0.115679
v 1.416180 -0.123688 0.415679
v -1.383820 -0.123687 -0.584321
v -1.183820 -0.123688 0.315679
v -1.383820 -0.123688 0.315679
v -1.183820 -0.123687 -0.584321
v 0.016180 -0.123687 -0.584321
v 0.016180 -0.123688 0.115679
v 1.416180 -0.123687 -0.584321
v -0.883820 -0.023687 -0.784321
v 0.816180 -0.023688 -0.584321
v -0.883820 -0.023688 -0.584321
v -0.783820 -0.023687 -0.784321
v -0.783820 -0.023687 -0.884321
v 0.816180 -0.023687 -0.884321
v 1.416180 0.176312 0.015679
v 1.516180 0.176312 0.415679
v 1.416180 0.176312 0.415679
v 1.516180 0.176312 0.015679
v -0.683820 0.276313 -0.984321
v 0.516180 0.276313 -0.884321
v -0.683820 0.276313 -0.884321
v 0.516180 0.276313 -0.984321
v -0.483820 0.076312 1.115679
v 0.716180 0.076312 1.115679
v -0.483820 0.076312 1.015679
v 0.716180 0.076312 1.015679
v -0.583820 0.176312 1.015679
v 0.716180 0.176312 1.015679
v -0.583820 0.176312 0.915679
v -0.683820 0.176312 0.915679
v -0.683820 0.176312 0.815679
v 0.716180 0.176312 0.815679
v -0.683820 0.276312 0.815679
v 0.716180 0.276312 0.815679
v -0.683820 0.276312 0.715679
v -0.783820 0.276312 0.715679
v -0.783820 0.276312 0.515679
v 0.716180 0.276312 0.515679
v -1.183820 0.576312 0.515679
v 1.116180 0.576312 0.515679
v 1.116180 0.576312 0.415679
v -1.183820 0.576312 0.315679
v 1.516180 0.576312 0.415679
v 1.416180 0.576313 0.015679
v -1.383820 0.576312 0.315679
v 1.516180 0.576313 0.015679
v -0.883820 0.576313 -0.084321
v 0.816180 0.576313 -0.084321
v -1.383820 0.576313 -0.584321
v -0.883820 0.576313 -0.584321
v 0.816180 0.576313 -0.584321
v 1.416180 0.576313 -0.584321
v -0.883820 0.776312 -0.084321
v -0.783820 0.776312 -0.084321
v -0.883820 0.776312 -0.784321
v -0.783820 0.776312 -0.784321
v -0.783820 0.876312 -0.084321
v 0.816180 0.876312 -0.084321
v -0.683820 0.876313 -0.384321
v 0.516180 0.876313 -0.384321
v -0.783820 0.876313 -0.884321
v -0.683820 0.876313 -0.884321
v 0.516180 0.876313 -0.884321
v 0.816180 0.876313 -0.884321
v -0.683820 0.976312 -0.384321
v 0.516180 0.976312 -0.384321
v -0.683820 0.976313 -0.984321
v 0.516180 0.976313 -0.984321
vt 0.958984 0.500000
vt 0.958984 0.500000
vt 0.958984 0.500000
vt 0.958984 0.500000
vt 0.958984 0.500000
vt 0.958984 0.500000
vt 0.958984 0.500000
vt 0.958984 0.500000
vt 0.958984 0.500000
vt 0.958984 0.500000
vt 0.958984 0.500000
vt 0.958984 0.500000
vt 0.958984 0.500000
vt 0.958984 0.500000
vt 0.958984 0.500000
vt 0.958984 0.500000
vt 0.958984 0.500000
vt 0.958984 0.500000
vt 0.958984 0.500000
vt 0.958984 0.500000
vt 0.958984 0.500000
vt 0.958984 0.500000
vt 0.958984 0.500000
vt 0.958984 0.500000
vt 0.958984 0.500000
vt 0.958984 0.500000
vt 0.958984 0.500000
vt 0.958984 0.500000
vt 0.958984 0.500000
vt 0.958984 0.500000
vt 0.958984 0.500000
vt 0.958984 0.500000
vt 0.958984 0.500000
vt 0.958984 0.500000
vt 0.958984 0.500000
vt 0.958984 0.500000
vt 0.958984 0.500000
vt 0.958984 0.500000
vt 0.958984 0.500000
vt 0.958984 0.500000
vt 0.958984 0.500000
vt 0.958984 0.500000
vt 0.958984 0.500000
vt 0.958984 0.500000
vt 0.958984 0.500000
vt 0.958984 0.500000
vt 0.958984 0.500000
vt 0.958984 0.500000
vt 0.958984 0.500000
vt 0.958984 0.500000
vt 0.958984 0.500000
vt 0.958984 0.500000
vt 0.958984 0.500000
vt 0.958984 0.500000
vt 0.958984 0.500000
vt 0.958984 0.500000
vt 0.958984 0.500000
vt 0.958984 0.500000
vt 0.958984 0.500000
vt 0.958984 0.500000
vt 0.958984 0.500000
vt 0.958984 0.500000
vt 0.958984 0.500000
vt 0.958984 0.500000
vt 0.958984 0.500000
vt 0.958984 0.500000
vt 0.958984 0.500000
vt 0.958984 0.500000
vt 0.958984 0.500000
vt 0.958984 0.500000
vt 0.958984 0.500000
vt 0.958984 0.500000
vt 0.958984 0.500000
vt 0.958984 0.500000
vt 0.958984 0.500000
vt 0.958984 0.500000
vt 0.958984 0.500000
vt 0.958984 0.500000
vt 0.958984 0.500000
vt 0.958984 0.500000
vt 0.958984 0.500000
vt 0.958984 0.500000
vt 0.958984 0.500000
vt 0.958984 0.500000
vt 0.958984 0.500000
vt 0.958984 0.500000
vt 0.958984 0.500000
vt 0.958984 0.500000
vt 0.958984 0.500000
vt 0.958984 0.500000
vt 0.958984 0.500000
vt 0.958984 0.500000
vt 0.958984 0.500000
vt 0.958984 0.500000
vt 0.958984 0.500000
vt 0.958984 0.500000
vt 0.958984 0.500000
vt 0.958984 0.500000
vt 0.958984 0.500000
vt 0.958984 0.500000
vt 0.958984 0.500000
vt 0.958984 0.500000
vt 0.958984 0.500000
vt 0.958984 0.500000
vt 0.958984 0.500000
vt 0.958984 0.500000
vt 0.958984 0.500000
vt 0.958984 0.500000
vt 0.958984 0.500000
vt 0.958984 0.500000
vt 0.958984 0.500000
vt 0.958984 0.500000
vt 0.958984 0.500000
vt 0.958984 0.500000
vt 0.958984 0.500000
vt 0.958984 0.500000
vt 0.958984 0.500000
vt 0.958984 0.500000
vt 0.958984 0.500000
vt 0.958984 0.500000
vt 0.958984 0.500000
vt 0.958984 0.500000
vt 0.958984 0.500000
vt 0.958984 0.500000
vt 0.958984 0.500000
vt 0.958984 0.500000
vt 0.958984 0.500000
vt 0.958984 0.500000
vt 0.958984 0.500000
vt 0.958984 0.500000
vt 0.958984 0.500000
vt 0.958984 0.500000
vt 0.958984 0.500000
vt 0.958984 0.500000
vt 0.958984 0.500000
vt 0.958984 0.500000
vt 0.958984 0.500000
vt 0.958984 0.500000
vt 0.958984 0.500000
vt 0.958984 0.500000
vt 0.958984 0.500000
vt 0.958984 0.500000
vt 0.958984 0.500000
vt 0.958984 0.500000
vt 0.958984 0.500000
vt 0.958984 0.500000
vt 0.958984 0.500000
vt 0.958984 0.500000
vt 0.958984 0.500000
vt 0.958984 0.500000
vt 0.958984 0.500000
vt 0.958984 0.500000
vt 0.958984 0.500000
vt 0.958984 0.500000
vt 0.958984 0.500000
vt 0.958984 0.500000
vt 0.958984 0.500000
vt 0.958984 0.500000
vt 0.958984 0.500000
vt 0.958984 0.500000
vt 0.958984 0.500000
vt 0.958984 0.500000
vt 0.958984 0.500000
vt 0.958984 0.500000
vt 0.958984 0.500000
vt 0.958984 0.500000
vt 0.958984 0.500000
vt 0.958984 0.500000
vt 0.958984 0.500000
vt 0.958984 0.500000
vt 0.958984 0.500000
vt 0.958984 0.500000
vt 0.958984 0.500000
vt 0.958984 0.500000
vt 0.958984 0.500000
vt 0.958984 0.500000
vt 0.958984 0.500000
vt 0.958984 0.500000
vt 0.958984 0.500000
vt 0.958984 0.500000
vt 0.958984 0.500000
vt 0.958984 0.500000
vt 0.958984 0.500000
vt 0.958984 0.500000
vt 0.958984 0.500000
vt 0.958984 0.500000
vt 0.958984 0.500000
vt 0.958984 0.500000
vt 0.958984 0.500000
vt 0.958984 0.500000
vt 0.958984 0.500000
vt 0.958984 0.500000
vt 0.958984 0.500000
vt 0.958984 0.500000
vt 0.958984 0.500000
vt 0.958984 0.500000
vt 0.958984 0.500000
vt 0.958984 0.500000
vt 0.958984 0.500000
vt 0.958984 0.500000
vt 0.958984 0.500000
vt 0.958984 0.500000
vt 0.958984 0.500000
vt 0.958984 0.500000
vt 0.958984 0.500000
vt 0.958984 0.500000
vt 0.958984 0.500000
vt 0.958984 0.500000
vt 0.958984 0.500000
vt 0.958984 0.500000
vt 0.958984 0.500000
vt 0.958984 0.500000
vt 0.958984 0.500000
vt 0.958984 0.500000
vt 0.958984 0.500000
vt 0.958984 0.500000
vt 0.958984 0.500000
vt 0.958984 0.500000
vt 0.958984 0.500000
vt 0.958984 0.500000
vt 0.958984 0.500000
vt 0.958984 0.500000
vt 0.958984 0.500000
vt 0.958984 0.500000
vt 0.958984 0.500000
vt 0.958984 0.500000
vt 0.958984 0.500000
vt 0.958984 0.500000
vt 0.958984 0.500000
vt 0.958984 0.500000
vt 0.958984 0.500000
vt 0.958984 0.500000
vt 0.958984 0.500000
vt 0.958984 0.500000
vt 0.958984 0.500000
vt 0.958984 0.500000
vt 0.958984 0.500000
vt 0.958984 0.500000
vt 0.958984 0.500000
vt 0.958984 0.500000
vt 0.958984 0.500000
vt 0.958984 0.500000
vt 0.958984 0.500000
vt 0.958984 0.500000
vt 0.958984 0.500000
vt 0.958984 0.500000
vt 0.958984 0.500000
vt 0.958984 0.500000
vt 0.958984 0.500000
vt 0.958984 0.500000
vt 0.958984 0.500000
vt 0.958984 0.500000
vt 0.958984 0.500000
vt 0.958984 0.500000
vt 0.958984 0.500000
vt 0.958984 0.500000
vt 0.958984 0.500000
vt 0.958984 0.500000
vt 0.958984 0.500000
vt 0.958984 0.500000
vt 0.958984 0.500000
vt 0.958984 0.500000
vt 0.958984 0.500000
vt 0.958984 0.500000
vt 0.958984 0.500000
vt 0.958984 0.500000
vt 0.958984 0.500000
vt 0.958984 0.500000
vt 0.958984 0.500000
vt 0.958984 0.500000
vt 0.958984 0.500000
vt 0.958984 0.500000
vt 0.958984 0.500000
vt 0.958984 0.500000
vt 0.958984 0.500000
vt 0.958984 0.500000
vt 0.958984 0.500000
vt 0.958984 0.500000
vt 0.958984 0.500000
vt 0.958984 0.500000
vt 0.958984 0.500000
vt 0.958984 0.500000
vt 0.958984 0.500000
vt 0.958984 0.500000
vt 0.958984 0.500000
vt 0.958984 0.500000
vt 0.958984 0.500000
vt 0.958984 0.500000
vn -1.0000 -0.0000 0.0000
vn 1.0000 0.0000 0.0000
vn 0.0000 -0.0000 1.0000
vn 0.0000 0.0000 -1.0000
vn 0.0000 -1.0000 -0.0000
vn 0.0000 1.0000 0.0000
usemtl palette
s 1
f 1/1/1 2/2/1 3/3/1
f 4/4/1 2/2/1 1/1/1
f 5/5/1 6/6/1 7/7/1
f 8/8/1 6/6/1 5/5/1
f 9/9/1 5/5/1 7/7/1
f 10/10/1 5/5/1 9/9/1
f 11/11/1 12/12/1 13/13/1
f 14/14/1 11/11/1 15/15/1
f 16/16/1 12/12/1 11/11/1
f 16/16/1 11/11/1 14/14/1
f 17/17/1 18/18/1 19/19/1
f 20/20/1 18/18/1 17/17/1
f 21/21/1 22/22/1 23/23/1
f 24/24/1 21/21/1 25/25/1
f 26/26/1 22/22/1 21/21/1
f 26/26/1 21/21/1 24/24/1
f 27/27/1 28/28/1 29/29/1
f 30/30/1 27/27/1 29/29/1
f 30/30/1 31/31/1 27/27/1
f 32/32/1 31/31/1 30/30/1
f 33/33/1 31/31/1 32/32/1
f 34/34/1 31/31/1 33/33/1
f 35/35/1 36/36/1 37/37/1
f 38/38/1 35/35/1 39/39/1
f 40/40/1 36/36/1 35/35/1
f 40/40/1 35/35/1 38/38/1
f 41/41/1 42/42/1 43/43/1
f 44/44/1 42/42/1 41/41/1
f 45/45/1 46/46/1 47/47/1
f 48/48/1 46/46/1 45/45/1
f 49/49/1 46/46/1 48/48/1
f 50/50/1 46/46/1 49/49/1
f 51/51/1 45/45/1 47/47/1
f 52/52/1 45/45/1 51/51/1
f 53/53/2 54/54/2 55/55/2
f 55/55/2 54/54/2 56/56/2
f 57/57/2 58/58/2 59/59/2
f 60/60/2 59/59/2 61/61/2
f 59/59/2 58/58/2 62/62/2
f 61/61/2 59/59/2 62/62/2
f 63/63/2 64/64/2 65/65/2
f 63/63/2 65/65/2 66/66/2
f 65/65/2 67/67/2 66/66/2
f 66/66/2 67/67/2 68/68/2
f 68/68/2 67/67/2 69/69/2
f 69/69/2 67/67/2 70/70/2
f 70/70/2 67/67/2 71/71/2
f 71/71/2 67/67/2 72/72/2
f 73/73/2 74/74/2 75/75/2
f 76/76/2 75/75/2 77/77/2
f 75/75/2 74/74/2 78/78/2
f 77/77/2 75/75/2 78/78/2
f 79/79/2 80/80/2 81/81/2
f 81/81/2 80/80/2 82/82/2
f 83/83/2 84/84/2 85/85/2
f 85/85/2 84/84/2 86/86/2
f 87/87/2 88/88/2 89/89/2
f 89/89/2 88/88/2 90/90/2
f 90/90/2 88/88/2 91/91/2
f 91/91/2 88/88/2 92/92/2
f 93/93/2 94/94/2 95/95/2
f 95/95/2 94/94/2 96/96/2
f 97/97/3 98/98/3 99/99/3
f 100/100/3 98/98/3 97/97/3
f 101/101/3 102/102/3 103/103/3
f 104/104/3 102/102/3 101/101/3
f 105/105/3 102/102/3 104/104/3
f 106/106/3 102/102/3 105/105/3
f 107/107/3 108/108/3 109/109/3
f 110/110/3 108/108/3 107/107/3
f 111/111/3 112/112/3 113/113/3
f 114/114/3 112/112/3 111/111/3
f 115/115/3 116/116/3 117/117/3
f 118/118/3 116/116/3 115/115/3
f 119/119/3 120/120/3 121/121/3
f 122/122/3 120/120/3 119/119/3
f 123/123/3 120/120/3 122/122/3
f 124/124/3 123/123/3 125/125/3
f 126/126/3 123/123/3 124/124/3
f 127/127/3 123/123/3 126/126/3
f 128/128/3 120/120/3 123/123/3
f 128/128/3 123/123/3 127/127/3
f 129/129/3 130/130/3 131/131/3
f 132/132/3 130/130/3 129/129/3
f 133/133/3 130/130/3 132/132/3
f 134/134/3 130/130/3 133/133/3
f 135/135/3 136/136/3 137/137/3
f 138/138/3 136/136/3 135/135/3
f 139/139/3 140/140/3 141/141/3
f 142/142/3 139/139/3 141/141/3
f 142/142/3 143/143/3 139/139/3
f 144/144/3 143/143/3 142/142/3
f 145/145/3 146/146/3 147/147/3
f 148/148/3 146/146/3 145/145/3
f 149/149/4 150/150/4 151/151/4
f 151/151/4 150/150/4 152/152/4
f 153/153/4 154/154/4 155/155/4
f 155/155/4 154/154/4 156/156/4
f 157/157/4 158/158/4 159/159/4
f 159/159/4 158/158/4 160/160/4
f 161/161/4 162/162/4 163/163/4
f 163/163/4 162/162/4 164/164/4
f 165/165/4 166/166/4 167/167/4
f 167/167/4 166/166/4 168/168/4
f 169/169/4 167/167/4 168/168/4
f 168/168/4 166/166/4 170/170/4
f 169/169/4 168/168/4 171/171/4
f 171/171/4 168/168/4 172/172/4
f 172/172/4 168/168/4 173/173/4
f 172/172/4 173/173/4 174/174/4
f 173/173/4 175/175/4 174/174/4
f 174/174/4 175/175/4 176/176/4
f 177/177/4 178/178/4 179/179/4
f 179/179/4 178/178/4 180/180/4
f 181/181/4 182/182/4 183/183/4
f 183/183/4 182/182/4 184/184/4
f 181/181/4 183/183/4 185/185/4
f 181/181/4 185/185/4 186/186/4
f 185/185/4 187/187/4 186/186/4
f 186/186/4 187/187/4 188/188/4
f 189/189/4 190/190/4 191/191/4
f 191/191/4 190/190/4 192/192/4
f 193/193/5 194/194/5 195/195/5
f 196/196/5 194/194/5 193/193/5
f 197/197/5 198/198/5 199/199/5
f 200/200/5 197/197/5 201/201/5
f 202/202/5 198/198/5 197/197/5
f 202/202/5 197/197/5 200/200/5
f 203/203/5 204/204/5 205/205/5
f 206/206/5 204/204/5 203/203/5
f 206/206/5 203/203/5 207/207/5
f 208/208/5 206/206/5 207/207/5
f 208/208/5 209/209/5 206/206/5
f 210/210/5 209/209/5 208/208/5
f 211/211/5 208/208/5 212/212/5
f 211/211/5 213/213/5 210/210/5
f 211/211/5 210/210/5 208/208/5
f 214/214/5 213/213/5 211/211/5
f 215/215/5 211/211/5 212/212/5
f 216/216/5 211/211/5 215/215/5
f 217/217/5 218/218/5 219/219/5
f 220/220/5 217/217/5 219/219/5
f 220/220/5 221/221/5 217/217/5
f 222/222/5 223/223/5 224/224/5
f 225/225/5 223/223/5 222/222/5
f 226/226/5 220/220/5 227/227/5
f 228/228/5 221/221/5 220/220/5
f 228/228/5 220/220/5 226/226/5
f 229/229/5 230/230/5 231/231/5
f 232/232/5 230/230/5 229/229/5
f 233/233/5 230/230/5 232/232/5
f 234/234/5 230/230/5 233/233/5
f 235/235/5 236/236/5 237/237/5
f 238/238/5 236/236/5 235/235/5
f 239/239/5 240/240/5 241/241/5
f 242/242/5 240/240/5 239/239/5
f 243/243/6 244/244/6 245/245/6
f 245/245/6 244/244/6 246/246/6
f 247/247/6 248/248/6 249/249/6
f 250/250/6 249/249/6 251/251/6
f 249/249/6 248/248/6 252/252/6
f 251/251/6 249/249/6 252/252/6
f 253/253/6 254/254/6 255/255/6
f 256/256/6 255/255/6 257/257/6
f 255/255/6 254/254/6 258/258/6
f 257/257/6 255/255/6 258/258/6
f 259/259/6 260/260/6 261/261/6
f 259/259/6 261/261/6 262/262/6
f 261/261/6 263/263/6 262/262/6
f 262/262/6 263/263/6 264/264/6
f 265/265/6 262/262/6 264/264/6
f 264/264/6 263/263/6 266/266/6
f 265/265/6 264/264/6 267/267/6
f 267/267/6 264/264/6 268/268/6
f 265/265/6 267/267/6 269/269/6
f 269/269/6 267/267/6 270/270/6
f 268/268/6 264/264/6 271/271/6
f 271/271/6 264/264/6 272/272/6
f 273/273/6 274/274/6 275/275/6
f 275/275/6 274/274/6 276/276/6
f 277/277/6 278/278/6 279/279/6
f 279/279/6 278/278/6 280/280/6
f 277/277/6 279/279/6 281/281/6
f 281/281/6 279/279/6 282/282/6
f 280/280/6 278/278/6 283/283/6
f 283/283/6 278/278/6 284/284/6
f 285/285/6 286/286/6 287/287/6
f 287/287/6 286/286/6 288/288/6
