# Blender v2.80 (sub 75) OBJ File: ''
# www.blender.org
mtllib DryDirt.mtl
g DryDirt
v -0.500000 0.100000 0.500000
v -0.500000 0.000000 -0.500000
v -0.500000 -0.000000 0.500000
v -0.500000 0.100000 -0.500000
v 0.500000 -0.000000 0.500000
v 0.500000 0.000000 -0.500000
v 0.500000 0.100000 0.500000
v 0.500000 0.100000 -0.500000
v 0.500000 -0.000000 0.500000
v -0.500000 0.100000 0.500000
v -0.500000 -0.000000 0.500000
v 0.500000 0.100000 0.500000
v -0.500000 0.000000 -0.500000
v -0.500000 0.100000 -0.500000
v 0.500000 0.000000 -0.500000
v 0.500000 0.100000 -0.500000
v -0.400000 0.000000 0.400000
v 0.500000 -0.000000 0.500000
v -0.500000 -0.000000 0.500000
v -0.300000 0.000000 0.400000
v -0.100000 0.000000 0.400000
v 0.200000 0.000000 0.400000
v 0.300000 0.000000 0.400000
v -0.300000 0.000000 0.300000
v -0.200000 0.000000 0.300000
v 0.200000 0.000000 0.300000
v 0.300000 0.000000 0.300000
v 0.400000 0.000000 0.300000
v -0.400000 0.000000 0.200000
v -0.200000 0.000000 0.200000
v -0.100000 0.000000 0.200000
v 0.300000 0.000000 0.200000
v 0.400000 0.000000 0.200000
v 0.000000 0.000000 0.100000
v 0.100000 0.000000 0.100000
v 0.100000 0.000000 0.000000
v 0.200000 0.000000 0.000000
v 0.000000 0.000000 -0.100000
v 0.200000 0.000000 -0.100000
v -0.400000 0.000000 -0.200000
v -0.300000 0.000000 -0.200000
v 0.300000 0.000000 -0.200000
v 0.400000 0.000000 -0.200000
v -0.400000 0.000000 -0.300000
v -0.300000 0.000000 -0.300000
v -0.200000 0.000000 -0.300000
v 0.300000 0.000000 -0.300000
v 0.400000 0.000000 -0.300000
v -0.300000 0.000000 -0.400000
v -0.200000 0.000000 -0.400000
v -0.500000 0.000000 -0.500000
v 0.500000 0.000000 -0.500000
v -0.500000 0.100000 0.500000
v 0.500000 0.100000 0.500000
v -0.400000 0.100000 0.400000
v -0.300000 0.100000 0.400000
v -0.100000 0.100000 0.400000
v 0.200000 0.100000 0.400000
v 0.300000 0.100000 0.400000
v -0.300000 0.100000 0.300000
v -0.200000 0.100000 0.300000
v 0.200000 0.100000 0.300000
v 0.300000 0.100000 0.300000
v 0.400000 0.100000 0.300000
v -0.400000 0.100000 0.200000
v -0.200000 0.100000 0.200000
v -0.100000 0.100000 0.200000
v 0.300000 0.100000 0.200000
v 0.400000 0.100000 0.200000
v 0.000000 0.100000 0.100000
v 0.100000 0.100000 0.100000
v 0.100000 0.100000 0.000000
v 0.200000 0.100000 0.000000
v 0.000000 0.100000 -0.100000
v 0.200000 0.100000 -0.100000
v -0.400000 0.100000 -0.200000
v -0.300000 0.100000 -0.200000
v 0.300000 0.100000 -0.200000
v 0.400000 0.100000 -0.200000
v -0.400000 0.100000 -0.300000
v -0.300000 0.100000 -0.300000
v -0.200000 0.100000 -0.300000
v 0.300000 0.100000 -0.300000
v 0.400000 0.100000 -0.300000
v -0.300000 0.100000 -0.400000
v -0.200000 0.100000 -0.400000
v -0.500000 0.100000 -0.500000
v 0.500000 0.100000 -0.500000
vt 0.205078 0.500000
vt 0.205078 0.500000
vt 0.205078 0.500000
vt 0.205078 0.500000
vt 0.205078 0.500000
vt 0.205078 0.500000
vt 0.205078 0.500000
vt 0.205078 0.500000
vt 0.205078 0.500000
vt 0.205078 0.500000
vt 0.205078 0.500000
vt 0.205078 0.500000
vt 0.205078 0.500000
vt 0.205078 0.500000
vt 0.205078 0.500000
vt 0.205078 0.500000
vt 0.205078 0.500000
vt 0.205078 0.500000
vt 0.205078 0.500000
vt 0.205078 0.500000
vt 0.205078 0.500000
vt 0.205078 0.500000
vt 0.205078 0.500000
vt 0.181641 0.500000
vt 0.181641 0.500000
vt 0.181641 0.500000
vt 0.208984 0.500000
vt 0.208984 0.500000
vt 0.208984 0.500000
vt 0.208984 0.500000
vt 0.181641 0.500000
vt 0.181641 0.500000
vt 0.181641 0.500000
vt 0.205078 0.500000
vt 0.205078 0.500000
vt 0.181641 0.500000
vt 0.205078 0.500000
vt 0.205078 0.500000
vt 0.181641 0.500000
vt 0.181641 0.500000
vt 0.208984 0.500000
vt 0.181641 0.500000
vt 0.205078 0.500000
vt 0.208984 0.500000
vt 0.181641 0.500000
vt 0.181641 0.500000
vt 0.205078 0.500000
vt 0.205078 0.500000
vt 0.181641 0.500000
vt 0.205078 0.500000
vt 0.205078 0.500000
vt 0.205078 0.500000
vt 0.181641 0.500000
vt 0.181641 0.500000
vt 0.181641 0.500000
vt 0.205078 0.500000
vt 0.205078 0.500000
vt 0.205078 0.500000
vt 0.181641 0.500000
vt 0.181641 0.500000
vt 0.205078 0.500000
vt 0.181641 0.500000
vt 0.205078 0.500000
vt 0.205078 0.500000
vt 0.205078 0.500000
vt 0.205078 0.500000
vt 0.181641 0.500000
vt 0.181641 0.500000
vt 0.181641 0.500000
vt 0.205078 0.500000
vt 0.205078 0.500000
vt 0.181641 0.500000
vt 0.205078 0.500000
vt 0.181641 0.500000
vt 0.181641 0.500000
vt 0.181641 0.500000
vt 0.205078 0.500000
vt 0.205078 0.500000
vt 0.181641 0.500000
vt 0.181641 0.500000
vt 0.181641 0.500000
vt 0.205078 0.500000
vt 0.205078 0.500000
vt 0.181641 0.500000
vt 0.205078 0.500000
vt 0.205078 0.500000
vt 0.205078 0.500000
vt 0.205078 0.500000
vt 0.205078 0.500000
vt 0.205078 0.500000
vt 0.205078 0.500000
vt 0.205078 0.500000
vt 0.205078 0.500000
vt 0.181641 0.500000
vt 0.181641 0.500000
vt 0.181641 0.500000
vt 0.208984 0.500000
vt 0.208984 0.500000
vt 0.208984 0.500000
vt 0.208984 0.500000
vt 0.181641 0.500000
vt 0.181641 0.500000
vt 0.181641 0.500000
vt 0.205078 0.500000
vt 0.205078 0.500000
vt 0.181641 0.500000
vt 0.205078 0.500000
vt 0.205078 0.500000
vt 0.181641 0.500000
vt 0.181641 0.500000
vt 0.208984 0.500000
vt 0.181641 0.500000
vt 0.205078 0.500000
vt 0.208984 0.500000
vt 0.181641 0.500000
vt 0.181641 0.500000
vt 0.205078 0.500000
vt 0.205078 0.500000
vt 0.181641 0.500000
vt 0.205078 0.500000
vt 0.205078 0.500000
vt 0.205078 0.500000
vt 0.181641 0.500000
vt 0.181641 0.500000
vt 0.181641 0.500000
vt 0.205078 0.500000
vt 0.205078 0.500000
vt 0.205078 0.500000
vt 0.181641 0.500000
vt 0.181641 0.500000
vt 0.205078 0.500000
vt 0.181641 0.500000
vt 0.205078 0.500000
vt 0.205078 0.500000
vt 0.205078 0.500000
vt 0.205078 0.500000
vt 0.181641 0.500000
vt 0.181641 0.500000
vt 0.181641 0.500000
vt 0.205078 0.500000
vt 0.205078 0.500000
vt 0.181641 0.500000
vt 0.205078 0.500000
vt 0.181641 0.500000
vt 0.181641 0.500000
vt 0.181641 0.500000
vt 0.205078 0.500000
vt 0.205078 0.500000
vt 0.181641 0.500000
vt 0.181641 0.500000
vt 0.181641 0.500000
vt 0.205078 0.500000
vt 0.205078 0.500000
vt 0.181641 0.500000
vt 0.205078 0.500000
vt 0.205078 0.500000
vn -1.0000 0.0000 0.0000
vn 1.0000 0.0000 0.0000
vn 0.0000 -0.0000 1.0000
vn 0.0000 0.0000 -1.0000
vn -0.0000 -1.0000 -0.0000
vn 0.0000 1.0000 0.0000
usemtl palette
s 1
f 1/1/1 2/2/1 3/3/1
f 4/4/1 2/2/1 1/1/1
f 5/5/2 6/6/2 7/7/2
f 7/7/2 6/6/2 8/8/2
f 9/9/3 10/10/3 11/11/3
f 12/12/3 10/10/3 9/9/3
f 13/13/4 14/14/4 15/15/4
f 15/15/4 14/14/4 16/16/4
f 17/17/5 18/18/5 19/19/5
f 20/20/5 18/18/5 17/17/5
f 21/21/5 18/18/5 20/20/5
f 22/22/5 18/18/5 21/21/5
f 23/23/5 18/18/5 22/22/5
f 24/24/5 20/25/5 17/26/5
f 24/27/5 21/28/5 20/29/5
f 25/30/5 21/28/5 24/27/5
f 26/31/5 23/32/5 22/33/5
f 26/34/5 22/22/5 21/21/5
f 27/35/5 18/18/5 23/23/5
f 27/36/5 23/32/5 26/31/5
f 28/37/5 18/18/5 27/35/5
f 29/38/5 17/17/5 19/19/5
f 29/39/5 25/40/5 24/24/5
f 29/39/5 24/24/5 17/26/5
f 30/41/5 21/28/5 25/30/5
f 30/42/5 25/40/5 29/39/5
f 31/43/5 26/34/5 21/21/5
f 31/44/5 21/28/5 30/41/5
f 31/43/5 27/35/5 26/34/5
f 32/45/5 28/46/5 27/36/5
f 32/47/5 27/35/5 31/43/5
f 33/48/5 18/18/5 28/37/5
f 33/49/5 28/46/5 32/45/5
f 34/50/5 32/47/5 31/43/5
f 34/50/5 30/51/5 29/38/5
f 34/50/5 33/48/5 32/47/5
f 34/50/5 31/43/5 30/51/5
f 35/52/5 33/48/5 34/50/5
f 36/53/5 35/54/5 34/55/5
f 36/56/5 33/48/5 35/52/5
f 37/57/5 33/48/5 36/56/5
f 38/58/5 34/50/5 29/38/5
f 38/59/5 36/53/5 34/55/5
f 38/59/5 37/60/5 36/53/5
f 39/61/5 33/48/5 37/57/5
f 39/62/5 37/60/5 38/59/5
f 40/63/5 29/38/5 19/19/5
f 40/63/5 38/58/5 29/38/5
f 40/63/5 39/61/5 38/58/5
f 41/64/5 39/61/5 40/63/5
f 42/65/5 33/48/5 39/61/5
f 42/65/5 39/61/5 41/64/5
f 43/66/5 18/18/5 33/48/5
f 43/66/5 33/48/5 42/65/5
f 44/67/5 41/68/5 40/69/5
f 44/70/5 40/63/5 19/19/5
f 45/71/5 42/65/5 41/64/5
f 45/72/5 41/68/5 44/67/5
f 46/73/5 42/65/5 45/71/5
f 47/74/5 43/75/5 42/76/5
f 47/77/5 42/65/5 46/73/5
f 48/78/5 18/18/5 43/66/5
f 48/79/5 43/75/5 47/74/5
f 49/80/5 46/81/5 45/72/5
f 49/82/5 45/71/5 44/70/5
f 50/83/5 47/77/5 46/73/5
f 50/84/5 46/81/5 49/80/5
f 50/83/5 48/78/5 47/77/5
f 51/85/5 44/70/5 19/19/5
f 51/85/5 49/82/5 44/70/5
f 51/85/5 50/83/5 49/82/5
f 52/86/5 48/78/5 50/83/5
f 52/86/5 50/83/5 51/85/5
f 52/86/5 18/18/5 48/78/5
f 53/87/6 54/88/6 55/89/6
f 55/89/6 54/88/6 56/90/6
f 56/90/6 54/88/6 57/91/6
f 57/91/6 54/88/6 58/92/6
f 58/92/6 54/88/6 59/93/6
f 55/94/6 56/95/6 60/96/6
f 56/97/6 57/98/6 60/99/6
f 60/99/6 57/98/6 61/100/6
f 58/101/6 59/102/6 62/103/6
f 57/91/6 58/92/6 62/104/6
f 59/93/6 54/88/6 63/105/6
f 62/103/6 59/102/6 63/106/6
f 63/105/6 54/88/6 64/107/6
f 53/87/6 55/89/6 65/108/6
f 60/96/6 61/109/6 65/110/6
f 55/94/6 60/96/6 65/110/6
f 61/100/6 57/98/6 66/111/6
f 65/110/6 61/109/6 66/112/6
f 57/91/6 62/104/6 67/113/6
f 66/111/6 57/98/6 67/114/6
f 62/104/6 63/105/6 67/113/6
f 63/106/6 64/115/6 68/116/6
f 67/113/6 63/105/6 68/117/6
f 64/107/6 54/88/6 69/118/6
f 68/116/6 64/115/6 69/119/6
f 67/113/6 68/117/6 70/120/6
f 65/108/6 66/121/6 70/120/6
f 68/117/6 69/118/6 70/120/6
f 66/121/6 67/113/6 70/120/6
f 70/120/6 69/118/6 71/122/6
f 70/123/6 71/124/6 72/125/6
f 71/122/6 69/118/6 72/126/6
f 72/126/6 69/118/6 73/127/6
f 65/108/6 70/120/6 74/128/6
f 70/123/6 72/125/6 74/129/6
f 72/125/6 73/130/6 74/129/6
f 73/127/6 69/118/6 75/131/6
f 74/129/6 73/130/6 75/132/6
f 53/87/6 65/108/6 76/133/6
f 65/108/6 74/128/6 76/133/6
f 74/128/6 75/131/6 76/133/6
f 76/133/6 75/131/6 77/134/6
f 75/131/6 69/118/6 78/135/6
f 77/134/6 75/131/6 78/135/6
f 69/118/6 54/88/6 79/136/6
f 78/135/6 69/118/6 79/136/6
f 76/137/6 77/138/6 80/139/6
f 53/87/6 76/133/6 80/140/6
f 77/134/6 78/135/6 81/141/6
f 80/139/6 77/138/6 81/142/6
f 81/141/6 78/135/6 82/143/6
f 78/144/6 79/145/6 83/146/6
f 82/143/6 78/135/6 83/147/6
f 79/136/6 54/88/6 84/148/6
f 83/146/6 79/145/6 84/149/6
f 81/142/6 82/150/6 85/151/6
f 80/140/6 81/141/6 85/152/6
f 82/143/6 83/147/6 86/153/6
f 85/151/6 82/150/6 86/154/6
f 83/147/6 84/148/6 86/153/6
f 53/87/6 80/140/6 87/155/6
f 80/140/6 85/152/6 87/155/6
f 85/152/6 86/153/6 87/155/6
f 86/153/6 84/148/6 88/156/6
f 87/155/6 86/153/6 88/156/6
f 84/148/6 54/88/6 88/156/6
