# Blender v2.80 (sub 75) OBJ File: ''
# www.blender.org
mtllib Grass.mtl
o Grass
v 0.000000 0.100001 0.000000
v 0.000000 0.000002 -0.800000
v 0.000000 0.000002 0.000000
v 0.000000 0.100002 -0.800000
v 0.800000 0.000002 0.000000
v 0.800000 0.000002 -0.800000
v 0.800000 0.100001 0.000000
v 0.800000 0.100002 -0.800000
v 0.800000 0.000002 0.000000
v 0.000000 0.100001 0.000000
v 0.000000 0.000002 0.000000
v 0.800000 0.100001 0.000000
v 0.000000 0.000002 -0.800000
v 0.000000 0.100002 -0.800000
v 0.800000 0.000002 -0.800000
v 0.800000 0.100002 -0.800000
v 0.300000 0.000002 -0.200000
v 0.800000 0.000002 0.000000
v 0.000000 0.000002 0.000000
v 0.400000 0.000002 -0.200000
v 0.200000 0.000002 -0.300000
v 0.300000 0.000002 -0.300000
v 0.200000 0.000002 -0.400000
v 0.400000 0.000002 -0.400000
v 0.500000 0.000002 -0.500000
v 0.600000 0.000002 -0.500000
v 0.400000 0.000002 -0.600000
v 0.500000 0.000002 -0.600000
v 0.400000 0.000002 -0.700000
v 0.600000 0.000002 -0.700000
v 0.000000 0.000002 -0.800000
v 0.800000 0.000002 -0.800000
v 0.000000 0.100001 0.000000
v 0.800000 0.100001 0.000000
v 0.300000 0.100001 -0.200000
v 0.400000 0.100001 -0.200000
v 0.200000 0.100002 -0.300000
v 0.300000 0.100002 -0.300000
v 0.200000 0.100002 -0.400000
v 0.400000 0.100002 -0.400000
v 0.500000 0.100002 -0.500000
v 0.600000 0.100002 -0.500000
v 0.400000 0.100002 -0.600000
v 0.500000 0.100002 -0.600000
v 0.400000 0.100002 -0.700000
v 0.600000 0.100002 -0.700000
v 0.000000 0.100002 -0.800000
v 0.800000 0.100002 -0.800000
vt 0.892578 0.500000
vt 0.892578 0.500000
vt 0.892578 0.500000
vt 0.892578 0.500000
vt 0.892578 0.500000
vt 0.892578 0.500000
vt 0.892578 0.500000
vt 0.892578 0.500000
vt 0.892578 0.500000
vt 0.892578 0.500000
vt 0.892578 0.500000
vt 0.892578 0.500000
vt 0.892578 0.500000
vt 0.892578 0.500000
vt 0.892578 0.500000
vt 0.892578 0.500000
vt 0.892578 0.500000
vt 0.892578 0.500000
vt 0.892578 0.500000
vt 0.892578 0.500000
vt 0.892578 0.500000
vt 0.880859 0.500000
vt 0.880859 0.500000
vt 0.880859 0.500000
vt 0.892578 0.500000
vt 0.892578 0.500000
vt 0.880859 0.500000
vt 0.880859 0.500000
vt 0.892578 0.500000
vt 0.880859 0.500000
vt 0.892578 0.500000
vt 0.892578 0.500000
vt 0.892578 0.500000
vt 0.880859 0.500000
vt 0.880859 0.500000
vt 0.880859 0.500000
vt 0.892578 0.500000
vt 0.892578 0.500000
vt 0.880859 0.500000
vt 0.880859 0.500000
vt 0.892578 0.500000
vt 0.880859 0.500000
vt 0.892578 0.500000
vt 0.892578 0.500000
vt 0.892578 0.500000
vt 0.892578 0.500000
vt 0.892578 0.500000
vt 0.892578 0.500000
vt 0.892578 0.500000
vt 0.880859 0.500000
vt 0.880859 0.500000
vt 0.880859 0.500000
vt 0.892578 0.500000
vt 0.892578 0.500000
vt 0.880859 0.500000
vt 0.880859 0.500000
vt 0.892578 0.500000
vt 0.880859 0.500000
vt 0.892578 0.500000
vt 0.892578 0.500000
vt 0.892578 0.500000
vt 0.880859 0.500000
vt 0.880859 0.500000
vt 0.880859 0.500000
vt 0.892578 0.500000
vt 0.892578 0.500000
vt 0.880859 0.500000
vt 0.880859 0.500000
vt 0.892578 0.500000
vt 0.880859 0.500000
vt 0.892578 0.500000
vt 0.892578 0.500000
vn -1.0000 0.0000 0.0000
vn 1.0000 0.0000 0.0000
vn 0.0000 -0.0000 1.0000
vn 0.0000 0.0000 -1.0000
vn 0.0000 -1.0000 -0.0000
vn -0.0000 1.0000 0.0000
usemtl palette.002
s 1
f 1/1/1 2/2/1 3/3/1
f 4/4/1 2/2/1 1/1/1
f 5/5/2 6/6/2 7/7/2
f 7/7/2 6/6/2 8/8/2
f 9/9/3 10/10/3 11/11/3
f 12/12/3 10/10/3 9/9/3
f 13/13/4 14/14/4 15/15/4
f 15/15/4 14/14/4 16/16/4
f 17/17/5 18/18/5 19/19/5
f 20/20/5 18/18/5 17/17/5
f 21/21/5 17/17/5 19/19/5
f 22/22/5 20/23/5 17/24/5
f 22/25/5 17/17/5 21/21/5
f 23/26/5 21/21/5 19/19/5
f 23/27/5 22/22/5 21/28/5
f 24/29/5 18/18/5 20/20/5
f 24/30/5 22/22/5 23/27/5
f 24/30/5 20/23/5 22/22/5
f 25/31/5 24/29/5 23/26/5
f 25/31/5 18/18/5 24/29/5
f 26/32/5 18/18/5 25/31/5
f 27/33/5 25/31/5 23/26/5
f 28/34/5 26/35/5 25/36/5
f 28/37/5 25/31/5 27/33/5
f 29/38/5 27/33/5 23/26/5
f 29/39/5 28/34/5 27/40/5
f 30/41/5 18/18/5 26/32/5
f 30/42/5 28/34/5 29/39/5
f 30/42/5 26/35/5 28/34/5
f 31/43/5 23/26/5 19/19/5
f 31/43/5 29/38/5 23/26/5
f 31/43/5 30/41/5 29/38/5
f 32/44/5 18/18/5 30/41/5
f 32/44/5 30/41/5 31/43/5
f 33/45/6 34/46/6 35/47/6
f 35/47/6 34/46/6 36/48/6
f 33/45/6 35/47/6 37/49/6
f 35/50/6 36/51/6 38/52/6
f 37/49/6 35/47/6 38/53/6
f 33/45/6 37/49/6 39/54/6
f 37/55/6 38/52/6 39/56/6
f 36/48/6 34/46/6 40/57/6
f 39/56/6 38/52/6 40/58/6
f 38/52/6 36/51/6 40/58/6
f 39/54/6 40/57/6 41/59/6
f 40/57/6 34/46/6 41/59/6
f 41/59/6 34/46/6 42/60/6
f 39/54/6 41/59/6 43/61/6
f 41/62/6 42/63/6 44/64/6
f 43/61/6 41/59/6 44/65/6
f 39/54/6 43/61/6 45/66/6
f 43/67/6 44/64/6 45/68/6
f 42/60/6 34/46/6 46/69/6
f 45/68/6 44/64/6 46/70/6
f 44/64/6 42/63/6 46/70/6
f 33/45/6 39/54/6 47/71/6
f 39/54/6 45/66/6 47/71/6
f 45/66/6 46/69/6 47/71/6
f 46/69/6 34/46/6 48/72/6
f 47/71/6 46/69/6 48/72/6
