# Blender v2.80 (sub 75) OBJ File: ''
# www.blender.org
mtllib Wheat_02.mtl
g Wheat_02
v -0.399994 1.000003 0.100006
v -0.399994 0.700003 -0.099995
v -0.399994 0.700003 0.100005
v -0.399994 1.000003 -0.099994
v -0.299994 0.600003 0.100005
v -0.299994 0.400003 -0.099995
v -0.299994 0.400003 0.100005
v -0.299994 0.600003 -0.099995
v -0.299994 1.100003 0.100006
v -0.299994 1.000003 -0.099994
v -0.299994 1.000003 0.100006
v -0.299994 1.100003 -0.099994
v -0.199994 0.700003 0.100005
v -0.199994 0.600003 -0.099995
v -0.199994 0.600003 0.100005
v -0.199994 0.700003 -0.099995
v -0.199994 1.500003 0.100006
v -0.199994 1.300003 -0.099994
v -0.199994 1.300003 0.100006
v -0.199994 1.500003 -0.099994
v -0.099994 0.600003 0.100005
v -0.099994 0.000003 -0.099995
v -0.099994 0.000003 0.100005
v -0.099994 0.600003 -0.099995
v -0.099994 1.000003 0.100006
v -0.099994 0.700003 -0.099995
v -0.099994 0.700003 0.100005
v -0.099994 1.000003 -0.099994
v -0.099994 1.200003 0.100006
v -0.099994 1.100003 -0.099994
v -0.099994 1.100003 0.100006
v -0.099994 1.200003 -0.099994
v -0.099994 1.300003 0.100006
v -0.099994 1.300003 -0.099994
v -0.099994 1.500003 0.200006
v -0.099994 1.300003 0.200006
v -0.099994 1.500003 0.100006
v -0.099994 1.500003 -0.099994
v -0.099994 1.300003 -0.199994
v -0.099994 1.500003 -0.199994
v -0.099994 1.600003 0.100006
v -0.099994 1.600003 -0.099994
v 0.200006 0.600003 0.100005
v 0.200006 0.400003 -0.099995
v 0.200006 0.400003 0.100005
v 0.200006 0.600003 -0.099995
v 0.200006 1.000003 0.100006
v 0.200006 0.900003 -0.099994
v 0.200006 0.900003 0.100006
v 0.200006 1.000003 -0.099994
v 0.300006 0.900003 0.100006
v 0.300006 0.700003 -0.099995
v 0.300006 0.700003 0.100005
v 0.300006 0.900003 -0.099994
v -0.299994 0.700003 0.100005
v -0.299994 0.700003 -0.099995
v -0.299994 0.900003 0.100006
v -0.299994 0.900003 -0.099994
v -0.199994 0.400003 0.100005
v -0.199994 0.400003 -0.099995
v -0.199994 0.600003 0.100005
v -0.199994 0.600003 -0.099995
v -0.199994 0.900003 0.100006
v -0.199994 0.900003 -0.099994
v -0.199994 1.000003 0.100006
v -0.199994 1.000003 -0.099994
v 0.100006 0.000003 0.100005
v 0.100006 0.000003 -0.099995
v 0.100006 0.600003 0.100005
v 0.100006 0.600003 -0.099995
v 0.100006 0.700003 0.100005
v 0.100006 0.700003 -0.099995
v 0.100006 1.000003 0.100006
v 0.100006 1.000003 -0.099994
v 0.100006 1.100003 0.100006
v 0.100006 1.100003 -0.099994
v 0.100006 1.200003 0.100006
v 0.100006 1.200003 -0.099994
v 0.100006 1.300003 0.100006
v 0.100006 1.300003 -0.099994
v 0.100006 1.300003 0.200006
v 0.100006 1.500003 0.200006
v 0.100006 1.500003 0.100006
v 0.100006 1.300003 -0.199994
v 0.100006 1.500003 -0.099994
v 0.100006 1.500003 -0.199994
v 0.100006 1.600003 0.100006
v 0.100006 1.600003 -0.099994
v 0.200006 0.600003 0.100005
v 0.200006 0.600003 -0.099995
v 0.200006 0.700003 0.100005
v 0.200006 0.700003 -0.099995
v 0.200006 1.300003 0.100006
v 0.200006 1.300003 -0.099994
v 0.200006 1.500003 0.100006
v 0.200006 1.500003 -0.099994
v 0.300006 0.400003 0.100005
v 0.300006 0.400003 -0.099995
v 0.300006 0.600003 0.100005
v 0.300006 0.600003 -0.099995
v 0.300006 1.000003 0.100006
v 0.300006 1.000003 -0.099994
v 0.300006 1.100003 0.100006
v 0.300006 1.100003 -0.099994
v 0.400006 0.700003 0.100005
v 0.400006 0.700003 -0.099995
v 0.400006 1.000003 0.100006
v 0.400006 1.000003 -0.099994
v 0.100006 1.300003 0.200006
v -0.099994 1.500003 0.200006
v -0.099994 1.300003 0.200006
v 0.100006 1.500003 0.200006
v -0.299994 0.700003 0.100005
v -0.399994 1.000003 0.100006
v -0.399994 0.700003 0.100005
v -0.299994 0.900003 0.100006
v -0.299994 1.000003 0.100006
v -0.199994 0.400003 0.100005
v -0.299994 0.600003 0.100005
v -0.299994 0.400003 0.100005
v -0.199994 0.600003 0.100005
v -0.199994 0.900003 0.100006
v -0.299994 1.100003 0.100006
v -0.199994 1.000003 0.100006
v -0.099994 0.600003 0.100005
v -0.199994 0.700003 0.100005
v -0.099994 0.700003 0.100005
v -0.099994 1.000003 0.100006
v -0.099994 1.100003 0.100006
v -0.099994 1.300003 0.100006
v -0.199994 1.500003 0.100006
v -0.199994 1.300003 0.100006
v -0.099994 1.500003 0.100006
v 0.100006 0.000003 0.100005
v -0.099994 1.200003 0.100006
v -0.099994 0.000003 0.100005
v 0.100006 0.600003 0.100005
v 0.100006 0.700003 0.100005
v 0.100006 1.000003 0.100006
v 0.100006 1.100003 0.100006
v 0.100006 1.200003 0.100006
v 0.100006 1.300003 0.100006
v 0.100006 1.500003 0.100006
v -0.099994 1.600003 0.100006
v 0.100006 1.600003 0.100006
v 0.200006 0.600003 0.100005
v 0.200006 0.700003 0.100005
v 0.200006 1.000003 0.100006
v 0.200006 1.300003 0.100006
v 0.200006 1.500003 0.100006
v 0.300006 0.400003 0.100005
v 0.200006 0.400003 0.100005
v 0.300006 0.600003 0.100005
v 0.300006 0.900003 0.100006
v 0.200006 0.900003 0.100006
v 0.300006 1.000003 0.100006
v 0.300006 1.100003 0.100006
v 0.400006 0.700003 0.100005
v 0.300006 0.700003 0.100005
v 0.400006 1.000003 0.100006
v -0.399994 0.700003 -0.099995
v -0.399994 1.000003 -0.099994
v -0.299994 0.700003 -0.099995
v -0.299994 0.900003 -0.099994
v -0.299994 1.000003 -0.099994
v -0.299994 0.400003 -0.099995
v -0.299994 0.600003 -0.099995
v -0.199994 0.400003 -0.099995
v -0.199994 0.600003 -0.099995
v -0.299994 1.100003 -0.099994
v -0.199994 0.900003 -0.099994
v -0.199994 1.000003 -0.099994
v -0.199994 0.700003 -0.099995
v -0.099994 0.600003 -0.099995
v -0.099994 0.700003 -0.099995
v -0.099994 1.000003 -0.099994
v -0.099994 1.100003 -0.099994
v -0.199994 1.300003 -0.099994
v -0.199994 1.500003 -0.099994
v -0.099994 1.300003 -0.099994
v -0.099994 1.500003 -0.099994
v 0.100006 0.000003 -0.099995
v -0.099994 1.200003 -0.099994
v -0.099994 0.000003 -0.099995
v 0.100006 0.600003 -0.099995
v 0.100006 0.700003 -0.099995
v 0.100006 1.000003 -0.099994
v 0.100006 1.100003 -0.099994
v 0.100006 1.200003 -0.099994
v 0.100006 1.300003 -0.099994
v -0.099994 1.600003 -0.099994
v 0.100006 1.500003 -0.099994
v 0.100006 1.600003 -0.099994
v 0.200006 0.600003 -0.099995
v 0.200006 0.700003 -0.099995
v 0.200006 1.000003 -0.099994
v 0.200006 1.300003 -0.099994
v 0.200006 1.500003 -0.099994
v 0.200006 0.400003 -0.099995
v 0.300006 0.400003 -0.099995
v 0.300006 0.600003 -0.099995
v 0.200006 0.900003 -0.099994
v 0.300006 0.900003 -0.099994
v 0.300006 1.000003 -0.099994
v 0.300006 1.100003 -0.099994
v 0.300006 0.700003 -0.099995
v 0.400006 0.700003 -0.099995
v 0.400006 1.000003 -0.099994
v -0.099994 1.300003 -0.199994
v -0.099994 1.500003 -0.199994
v 0.100006 1.300003 -0.199994
v 0.100006 1.500003 -0.199994
v -0.099994 0.000003 -0.099995
v 0.100006 0.000003 0.100005
v -0.099994 0.000003 0.100005
v 0.100006 0.000003 -0.099995
v -0.299994 0.400003 -0.099995
v -0.199994 0.400003 0.100005
v -0.299994 0.400003 0.100005
v -0.199994 0.400003 -0.099995
v 0.200006 0.400003 -0.099995
v 0.300006 0.400003 0.100005
v 0.200006 0.400003 0.100005
v 0.300006 0.400003 -0.099995
v -0.199994 0.600003 -0.099995
v -0.099994 0.600003 0.100005
v -0.199994 0.600003 0.100005
v -0.099994 0.600003 -0.099995
v 0.100006 0.600003 -0.099995
v 0.200006 0.600003 0.100005
v 0.100006 0.600003 0.100005
v 0.200006 0.600003 -0.099995
v -0.399994 0.700003 -0.099995
v -0.299994 0.700003 0.100005
v -0.399994 0.700003 0.100005
v -0.299994 0.700003 -0.099995
v 0.300006 0.700003 -0.099995
v 0.400006 0.700003 0.100005
v 0.300006 0.700003 0.100005
v 0.400006 0.700003 -0.099995
v -0.299994 0.900003 -0.099994
v -0.199994 0.900003 0.100006
v -0.299994 0.900003 0.100006
v -0.199994 0.900003 -0.099994
v 0.200006 0.900003 -0.099994
v 0.300006 0.900003 0.100006
v 0.200006 0.900003 0.100006
v 0.300006 0.900003 -0.099994
v -0.199994 1.000003 -0.099994
v -0.099994 1.000003 0.100006
v -0.199994 1.000003 0.100006
v -0.099994 1.000003 -0.099994
v 0.100006 1.000003 -0.099994
v 0.200006 1.000003 0.100006
v 0.100006 1.000003 0.100006
v 0.200006 1.000003 -0.099994
v -0.099994 1.300003 0.100006
v 0.100006 1.300003 0.200006
v -0.099994 1.300003 0.200006
v 0.100006 1.300003 0.100006
v -0.199994 1.300003 -0.099994
v -0.199994 1.300003 0.100006
v -0.099994 1.300003 -0.099994
v 0.100006 1.300003 -0.099994
v 0.200006 1.300003 0.100006
v 0.200006 1.300003 -0.099994
v -0.099994 1.300003 -0.199994
v 0.100006 1.300003 -0.199994
v -0.299994 0.600003 0.100005
v -0.199994 0.600003 0.100005
v -0.299994 0.600003 -0.099995
v -0.199994 0.600003 -0.099995
v 0.200006 0.600003 0.100005
v 0.300006 0.600003 0.100005
v 0.200006 0.600003 -0.099995
v 0.300006 0.600003 -0.099995
v -0.199994 0.700003 0.100005
v -0.099994 0.700003 0.100005
v -0.199994 0.700003 -0.099995
v -0.099994 0.700003 -0.099995
v 0.100006 0.700003 0.100005
v 0.200006 0.700003 0.100005
v 0.100006 0.700003 -0.099995
v 0.200006 0.700003 -0.099995
v -0.399994 1.000003 0.100006
v -0.299994 1.000003 0.100006
v -0.399994 1.000003 -0.099994
v -0.299994 1.000003 -0.099994
v 0.300006 1.000003 0.100006
v 0.400006 1.000003 0.100006
v 0.300006 1.000003 -0.099994
v 0.400006 1.000003 -0.099994
v -0.299994 1.100003 0.100006
v -0.099994 1.100003 0.100006
v -0.299994 1.100003 -0.099994
v -0.099994 1.100003 -0.099994
v 0.100006 1.100003 0.100006
v 0.300006 1.100003 0.100006
v 0.100006 1.100003 -0.099994
v 0.300006 1.100003 -0.099994
v -0.099994 1.500003 0.200006
v 0.100006 1.500003 0.200006
v -0.099994 1.500003 0.100006
v 0.100006 1.500003 0.100006
v -0.199994 1.500003 0.100006
v -0.199994 1.500003 -0.099994
v -0.099994 1.500003 -0.099994
v 0.200006 1.500003 0.100006
v 0.100006 1.500003 -0.099994
v 0.200006 1.500003 -0.099994
v -0.099994 1.500003 -0.199994
v 0.100006 1.500003 -0.199994
v -0.099994 1.600003 0.100006
v 0.100006 1.600003 0.100006
v -0.099994 1.600003 -0.099994
v 0.100006 1.600003 -0.099994
vt 0.880859 0.500000
vt 0.880859 0.500000
vt 0.880859 0.500000
vt 0.880859 0.500000
vt 0.880859 0.500000
vt 0.880859 0.500000
vt 0.880859 0.500000
vt 0.880859 0.500000
vt 0.880859 0.500000
vt 0.880859 0.500000
vt 0.880859 0.500000
vt 0.880859 0.500000
vt 0.880859 0.500000
vt 0.880859 0.500000
vt 0.880859 0.500000
vt 0.880859 0.500000
vt 0.017578 0.500000
vt 0.017578 0.500000
vt 0.017578 0.500000
vt 0.017578 0.500000
vt 0.880859 0.500000
vt 0.880859 0.500000
vt 0.880859 0.500000
vt 0.880859 0.500000
vt 0.880859 0.500000
vt 0.880859 0.500000
vt 0.880859 0.500000
vt 0.880859 0.500000
vt 0.880859 0.500000
vt 0.880859 0.500000
vt 0.880859 0.500000
vt 0.880859 0.500000
vt 0.017578 0.500000
vt 0.017578 0.500000
vt 0.017578 0.500000
vt 0.017578 0.500000
vt 0.017578 0.500000
vt 0.017578 0.500000
vt 0.017578 0.500000
vt 0.017578 0.500000
vt 0.017578 0.500000
vt 0.017578 0.500000
vt 0.017578 0.500000
vt 0.017578 0.500000
vt 0.880859 0.500000
vt 0.880859 0.500000
vt 0.880859 0.500000
vt 0.880859 0.500000
vt 0.880859 0.500000
vt 0.880859 0.500000
vt 0.880859 0.500000
vt 0.880859 0.500000
vt 0.880859 0.500000
vt 0.880859 0.500000
vt 0.880859 0.500000
vt 0.880859 0.500000
vt 0.880859 0.500000
vt 0.880859 0.500000
vt 0.880859 0.500000
vt 0.880859 0.500000
vt 0.880859 0.500000
vt 0.880859 0.500000
vt 0.880859 0.500000
vt 0.880859 0.500000
vt 0.880859 0.500000
vt 0.880859 0.500000
vt 0.880859 0.500000
vt 0.880859 0.500000
vt 0.880859 0.500000
vt 0.880859 0.500000
vt 0.880859 0.500000
vt 0.880859 0.500000
vt 0.880859 0.500000
vt 0.880859 0.500000
vt 0.880859 0.500000
vt 0.880859 0.500000
vt 0.880859 0.500000
vt 0.880859 0.500000
vt 0.880859 0.500000
vt 0.880859 0.500000
vt 0.017578 0.500000
vt 0.017578 0.500000
vt 0.017578 0.500000
vt 0.017578 0.500000
vt 0.017578 0.500000
vt 0.017578 0.500000
vt 0.017578 0.500000
vt 0.017578 0.500000
vt 0.017578 0.500000
vt 0.017578 0.500000
vt 0.017578 0.500000
vt 0.017578 0.500000
vt 0.880859 0.500000
vt 0.880859 0.500000
vt 0.880859 0.500000
vt 0.880859 0.500000
vt 0.017578 0.500000
vt 0.017578 0.500000
vt 0.017578 0.500000
vt 0.017578 0.500000
vt 0.880859 0.500000
vt 0.880859 0.500000
vt 0.880859 0.500000
vt 0.880859 0.500000
vt 0.880859 0.500000
vt 0.880859 0.500000
vt 0.880859 0.500000
vt 0.880859 0.500000
vt 0.880859 0.500000
vt 0.880859 0.500000
vt 0.880859 0.500000
vt 0.880859 0.500000
vt 0.017578 0.500000
vt 0.017578 0.500000
vt 0.017578 0.500000
vt 0.017578 0.500000
vt 0.880859 0.500000
vt 0.880859 0.500000
vt 0.880859 0.500000
vt 0.880859 0.500000
vt 0.880859 0.500000
vt 0.880859 0.500000
vt 0.880859 0.500000
vt 0.880859 0.500000
vt 0.880859 0.500000
vt 0.880859 0.500000
vt 0.880859 0.500000
vt 0.880859 0.500000
vt 0.880859 0.500000
vt 0.880859 0.500000
vt 0.880859 0.500000
vt 0.880859 0.500000
vt 0.880859 0.500000
vt 0.017578 0.500000
vt 0.017578 0.500000
vt 0.017578 0.500000
vt 0.017578 0.500000
vt 0.880859 0.500000
vt 0.880859 0.500000
vt 0.880859 0.500000
vt 0.880859 0.500000
vt 0.880859 0.500000
vt 0.880859 0.500000
vt 0.880859 0.500000
vt 0.017578 0.500000
vt 0.017578 0.500000
vt 0.880859 0.500000
vt 0.017578 0.500000
vt 0.017578 0.500000
vt 0.017578 0.500000
vt 0.017578 0.500000
vt 0.880859 0.500000
vt 0.880859 0.500000
vt 0.880859 0.500000
vt 0.017578 0.500000
vt 0.017578 0.500000
vt 0.880859 0.500000
vt 0.880859 0.500000
vt 0.880859 0.500000
vt 0.880859 0.500000
vt 0.880859 0.500000
vt 0.880859 0.500000
vt 0.880859 0.500000
vt 0.880859 0.500000
vt 0.880859 0.500000
vt 0.880859 0.500000
vt 0.880859 0.500000
vt 0.880859 0.500000
vt 0.880859 0.500000
vt 0.880859 0.500000
vt 0.880859 0.500000
vt 0.880859 0.500000
vt 0.880859 0.500000
vt 0.880859 0.500000
vt 0.880859 0.500000
vt 0.880859 0.500000
vt 0.880859 0.500000
vt 0.880859 0.500000
vt 0.880859 0.500000
vt 0.880859 0.500000
vt 0.880859 0.500000
vt 0.880859 0.500000
vt 0.880859 0.500000
vt 0.017578 0.500000
vt 0.017578 0.500000
vt 0.017578 0.500000
vt 0.017578 0.500000
vt 0.880859 0.500000
vt 0.880859 0.500000
vt 0.880859 0.500000
vt 0.880859 0.500000
vt 0.880859 0.500000
vt 0.880859 0.500000
vt 0.880859 0.500000
vt 0.017578 0.500000
vt 0.017578 0.500000
vt 0.880859 0.500000
vt 0.017578 0.500000
vt 0.017578 0.500000
vt 0.017578 0.500000
vt 0.017578 0.500000
vt 0.880859 0.500000
vt 0.880859 0.500000
vt 0.880859 0.500000
vt 0.017578 0.500000
vt 0.017578 0.500000
vt 0.880859 0.500000
vt 0.880859 0.500000
vt 0.880859 0.500000
vt 0.880859 0.500000
vt 0.880859 0.500000
vt 0.880859 0.500000
vt 0.880859 0.500000
vt 0.880859 0.500000
vt 0.880859 0.500000
vt 0.880859 0.500000
vt 0.017578 0.500000
vt 0.017578 0.500000
vt 0.017578 0.500000
vt 0.017578 0.500000
vt 0.880859 0.500000
vt 0.880859 0.500000
vt 0.880859 0.500000
vt 0.880859 0.500000
vt 0.880859 0.500000
vt 0.880859 0.500000
vt 0.880859 0.500000
vt 0.880859 0.500000
vt 0.880859 0.500000
vt 0.880859 0.500000
vt 0.880859 0.500000
vt 0.880859 0.500000
vt 0.880859 0.500000
vt 0.880859 0.500000
vt 0.880859 0.500000
vt 0.880859 0.500000
vt 0.880859 0.500000
vt 0.880859 0.500000
vt 0.880859 0.500000
vt 0.880859 0.500000
vt 0.880859 0.500000
vt 0.880859 0.500000
vt 0.880859 0.500000
vt 0.880859 0.500000
vt 0.880859 0.500000
vt 0.880859 0.500000
vt 0.880859 0.500000
vt 0.880859 0.500000
vt 0.880859 0.500000
vt 0.880859 0.500000
vt 0.880859 0.500000
vt 0.880859 0.500000
vt 0.880859 0.500000
vt 0.880859 0.500000
vt 0.880859 0.500000
vt 0.880859 0.500000
vt 0.880859 0.500000
vt 0.880859 0.500000
vt 0.880859 0.500000
vt 0.880859 0.500000
vt 0.880859 0.500000
vt 0.880859 0.500000
vt 0.880859 0.500000
vt 0.880859 0.500000
vt 0.017578 0.500000
vt 0.017578 0.500000
vt 0.017578 0.500000
vt 0.017578 0.500000
vt 0.017578 0.500000
vt 0.017578 0.500000
vt 0.017578 0.500000
vt 0.017578 0.500000
vt 0.017578 0.500000
vt 0.017578 0.500000
vt 0.017578 0.500000
vt 0.017578 0.500000
vt 0.880859 0.500000
vt 0.880859 0.500000
vt 0.880859 0.500000
vt 0.880859 0.500000
vt 0.880859 0.500000
vt 0.880859 0.500000
vt 0.880859 0.500000
vt 0.880859 0.500000
vt 0.880859 0.500000
vt 0.880859 0.500000
vt 0.880859 0.500000
vt 0.880859 0.500000
vt 0.880859 0.500000
vt 0.880859 0.500000
vt 0.880859 0.500000
vt 0.880859 0.500000
vt 0.880859 0.500000
vt 0.880859 0.500000
vt 0.880859 0.500000
vt 0.880859 0.500000
vt 0.880859 0.500000
vt 0.880859 0.500000
vt 0.880859 0.500000
vt 0.880859 0.500000
vt 0.880859 0.500000
vt 0.880859 0.500000
vt 0.880859 0.500000
vt 0.880859 0.500000
vt 0.880859 0.500000
vt 0.880859 0.500000
vt 0.880859 0.500000
vt 0.880859 0.500000
vt 0.017578 0.500000
vt 0.017578 0.500000
vt 0.017578 0.500000
vt 0.017578 0.500000
vt 0.017578 0.500000
vt 0.017578 0.500000
vt 0.017578 0.500000
vt 0.017578 0.500000
vt 0.017578 0.500000
vt 0.017578 0.500000
vt 0.017578 0.500000
vt 0.017578 0.500000
vt 0.017578 0.500000
vt 0.017578 0.500000
vt 0.017578 0.500000
vt 0.017578 0.500000
vn -1.0000 0.0000 0.0000
vn 1.0000 0.0000 0.0000
vn 0.0000 -0.0000 1.0000
vn 0.0000 0.0000 -1.0000
vn 0.0000 -1.0000 -0.0000
vn 0.0000 1.0000 0.0000
usemtl palette.004
s 1
f 1/1/1 2/2/1 3/3/1
f 4/4/1 2/2/1 1/1/1
f 5/5/1 6/6/1 7/7/1
f 8/8/1 6/6/1 5/5/1
f 9/9/1 10/10/1 11/11/1
f 12/12/1 10/10/1 9/9/1
f 13/13/1 14/14/1 15/15/1
f 16/16/1 14/14/1 13/13/1
f 17/17/1 18/18/1 19/19/1
f 20/20/1 18/18/1 17/17/1
f 21/21/1 22/22/1 23/23/1
f 24/24/1 22/22/1 21/21/1
f 25/25/1 26/26/1 27/27/1
f 28/28/1 26/26/1 25/25/1
f 29/29/1 30/30/1 31/31/1
f 32/32/1 30/30/1 29/29/1
f 33/33/1 32/34/1 29/35/1
f 34/36/1 32/34/1 33/33/1
f 35/37/1 33/33/1 36/38/1
f 37/39/1 33/33/1 35/37/1
f 38/40/1 39/41/1 34/36/1
f 40/42/1 39/41/1 38/40/1
f 41/43/1 38/40/1 37/39/1
f 42/44/1 38/40/1 41/43/1
f 43/45/1 44/46/1 45/47/1
f 46/48/1 44/46/1 43/45/1
f 47/49/1 48/50/1 49/51/1
f 50/52/1 48/50/1 47/49/1
f 51/53/1 52/54/1 53/55/1
f 54/56/1 52/54/1 51/53/1
f 55/57/2 56/58/2 57/59/2
f 57/59/2 56/58/2 58/60/2
f 59/61/2 60/62/2 61/63/2
f 61/63/2 60/62/2 62/64/2
f 63/65/2 64/66/2 65/67/2
f 65/67/2 64/66/2 66/68/2
f 67/69/2 68/70/2 69/71/2
f 69/71/2 68/70/2 70/72/2
f 71/73/2 72/74/2 73/75/2
f 73/75/2 72/74/2 74/76/2
f 75/77/2 76/78/2 77/79/2
f 77/79/2 76/78/2 78/80/2
f 77/81/2 78/82/2 79/83/2
f 79/83/2 78/82/2 80/84/2
f 81/85/2 79/83/2 82/86/2
f 82/86/2 79/83/2 83/87/2
f 80/84/2 84/88/2 85/89/2
f 85/89/2 84/88/2 86/90/2
f 83/87/2 85/89/2 87/91/2
f 87/91/2 85/89/2 88/92/2
f 89/93/2 90/94/2 91/95/2
f 91/95/2 90/94/2 92/96/2
f 93/97/2 94/98/2 95/99/2
f 95/99/2 94/98/2 96/100/2
f 97/101/2 98/102/2 99/103/2
f 99/103/2 98/102/2 100/104/2
f 101/105/2 102/106/2 103/107/2
f 103/107/2 102/106/2 104/108/2
f 105/109/2 106/110/2 107/111/2
f 107/111/2 106/110/2 108/112/2
f 109/113/3 110/114/3 111/115/3
f 112/116/3 110/114/3 109/113/3
f 113/117/3 114/118/3 115/119/3
f 116/120/3 114/118/3 113/117/3
f 117/121/3 114/118/3 116/120/3
f 118/122/3 119/123/3 120/124/3
f 121/125/3 119/123/3 118/122/3
f 122/126/3 123/127/3 117/121/3
f 122/126/3 117/121/3 116/120/3
f 124/128/3 123/127/3 122/126/3
f 125/129/3 126/130/3 121/125/3
f 127/131/3 126/130/3 125/129/3
f 128/132/3 123/127/3 124/128/3
f 129/133/3 123/127/3 128/132/3
f 130/134/3 131/135/3 132/136/3
f 133/137/3 131/135/3 130/134/3
f 134/138/3 127/131/3 125/129/3
f 134/138/3 135/139/3 129/133/3
f 134/138/3 125/129/3 136/140/3
f 134/138/3 128/132/3 127/131/3
f 134/138/3 129/133/3 128/132/3
f 137/141/3 135/139/3 134/138/3
f 138/142/3 135/139/3 137/141/3
f 139/143/3 135/139/3 138/142/3
f 140/144/3 135/139/3 139/143/3
f 141/145/3 130/134/3 135/146/3
f 141/147/3 135/139/3 140/144/3
f 142/148/3 130/134/3 141/145/3
f 143/149/3 144/150/3 133/137/3
f 145/151/3 144/150/3 143/149/3
f 146/152/3 138/142/3 137/141/3
f 147/153/3 138/142/3 146/152/3
f 148/154/3 140/144/3 139/143/3
f 149/155/3 143/149/3 142/148/3
f 150/156/3 143/149/3 149/155/3
f 151/157/3 146/152/3 152/158/3
f 153/159/3 146/152/3 151/157/3
f 154/160/3 148/154/3 155/161/3
f 156/162/3 140/144/3 148/154/3
f 156/162/3 148/154/3 154/160/3
f 157/163/3 140/144/3 156/162/3
f 158/164/3 154/160/3 159/165/3
f 158/164/3 156/162/3 154/160/3
f 160/166/3 156/162/3 158/164/3
f 161/167/4 162/168/4 163/169/4
f 163/169/4 162/168/4 164/170/4
f 164/170/4 162/168/4 165/171/4
f 166/172/4 167/173/4 168/174/4
f 168/174/4 167/173/4 169/175/4
f 165/171/4 170/176/4 171/177/4
f 164/170/4 165/171/4 171/177/4
f 171/177/4 170/176/4 172/178/4
f 169/175/4 173/179/4 174/180/4
f 174/180/4 173/179/4 175/181/4
f 172/178/4 170/176/4 176/182/4
f 176/182/4 170/176/4 177/183/4
f 178/184/4 179/185/4 180/186/4
f 180/186/4 179/185/4 181/187/4
f 174/180/4 175/181/4 182/188/4
f 177/183/4 183/189/4 182/188/4
f 184/190/4 174/180/4 182/188/4
f 175/181/4 176/182/4 182/188/4
f 176/182/4 177/183/4 182/188/4
f 182/188/4 183/189/4 185/191/4
f 185/191/4 183/189/4 186/192/4
f 186/192/4 183/189/4 187/193/4
f 187/193/4 183/189/4 188/194/4
f 183/195/4 180/186/4 189/196/4
f 188/194/4 183/189/4 189/197/4
f 189/196/4 180/186/4 190/198/4
f 181/187/4 191/199/4 192/200/4
f 192/200/4 191/199/4 193/201/4
f 185/191/4 186/192/4 194/202/4
f 194/202/4 186/192/4 195/203/4
f 187/193/4 188/194/4 196/204/4
f 190/198/4 192/200/4 197/205/4
f 197/205/4 192/200/4 198/206/4
f 199/207/4 194/202/4 200/208/4
f 200/208/4 194/202/4 201/209/4
f 202/210/4 196/204/4 203/211/4
f 196/204/4 188/194/4 204/212/4
f 203/211/4 196/204/4 204/212/4
f 204/212/4 188/194/4 205/213/4
f 206/214/4 203/211/4 207/215/4
f 203/211/4 204/212/4 207/215/4
f 207/215/4 204/212/4 208/216/4
f 209/217/4 210/218/4 211/219/4
f 211/219/4 210/218/4 212/220/4
f 213/221/5 214/222/5 215/223/5
f 216/224/5 214/222/5 213/221/5
f 217/225/5 218/226/5 219/227/5
f 220/228/5 218/226/5 217/225/5
f 221/229/5 222/230/5 223/231/5
f 224/232/5 222/230/5 221/229/5
f 225/233/5 226/234/5 227/235/5
f 228/236/5 226/234/5 225/233/5
f 229/237/5 230/238/5 231/239/5
f 232/240/5 230/238/5 229/237/5
f 233/241/5 234/242/5 235/243/5
f 236/244/5 234/242/5 233/241/5
f 237/245/5 238/246/5 239/247/5
f 240/248/5 238/246/5 237/245/5
f 241/249/5 242/250/5 243/251/5
f 244/252/5 242/250/5 241/249/5
f 245/253/5 246/254/5 247/255/5
f 248/256/5 246/254/5 245/253/5
f 249/257/5 250/258/5 251/259/5
f 252/260/5 250/258/5 249/257/5
f 253/261/5 254/262/5 255/263/5
f 256/264/5 254/262/5 253/261/5
f 257/265/5 258/266/5 259/267/5
f 260/268/5 258/266/5 257/265/5
f 261/269/5 257/265/5 262/270/5
f 263/271/5 257/265/5 261/269/5
f 264/272/5 265/273/5 260/268/5
f 266/274/5 265/273/5 264/272/5
f 267/275/5 264/272/5 263/271/5
f 268/276/5 264/272/5 267/275/5
f 269/277/6 270/278/6 271/279/6
f 271/279/6 270/278/6 272/280/6
f 273/281/6 274/282/6 275/283/6
f 275/283/6 274/282/6 276/284/6
f 277/285/6 278/286/6 279/287/6
f 279/287/6 278/286/6 280/288/6
f 281/289/6 282/290/6 283/291/6
f 283/291/6 282/290/6 284/292/6
f 285/293/6 286/294/6 287/295/6
f 287/295/6 286/294/6 288/296/6
f 289/297/6 290/298/6 291/299/6
f 291/299/6 290/298/6 292/300/6
f 293/301/6 294/302/6 295/303/6
f 295/303/6 294/302/6 296/304/6
f 297/305/6 298/306/6 299/307/6
f 299/307/6 298/306/6 300/308/6
f 301/309/6 302/310/6 303/311/6
f 303/311/6 302/310/6 304/312/6
f 305/313/6 303/311/6 306/314/6
f 306/314/6 303/311/6 307/315/6
f 304/312/6 308/316/6 309/317/6
f 309/317/6 308/316/6 310/318/6
f 307/315/6 309/317/6 311/319/6
f 311/319/6 309/317/6 312/320/6
f 313/321/6 314/322/6 315/323/6
f 315/323/6 314/322/6 316/324/6
