# MagicaVoxel @ Ephtracy

# group
o 

# material
mtllib Wheat_03.mtl
usemtl palette

# normals
vn -1 0 0
vn 1 0 0
vn 0 0 1
vn 0 0 -1
vn 0 -1 0
vn 0 1 0

# texcoords
vt 0.0175781 0.5
vt 0.0449219 0.5

# verts
v 0.1 2.2 -0.3
v 0.1 2.2 -0.5
v 0.1 2.4 -0.3
v 0.1 2.4 -0.5
v 0.1 2.6 -0.3
v 0.1 2.6 -0.5
v 0.1 2.8 -0.3
v 0.1 2.8 -0.5
v 0.2 2.4 -0.3
v 0.2 2.4 -0.5
v 0.2 2.5 -0.3
v 0.2 2.5 -0.5
v 0.2 2.8 -0.3
v 0.2 2.8 -0.5
v 0.2 2.9 -0.3
v 0.2 2.9 -0.5
v 0.2 3.2 -0.3
v 0.2 3.2 -0.5
v 0.2 3.5 -0.3
v 0.2 3.5 -0.5
v 0.3 2 -0.3
v 0.3 2 -0.5
v 0.3 2.4 -0.3
v 0.3 2.4 -0.5
v 0.3 2.5 -0.3
v 0.3 2.5 -0.5
v 0.3 2.8 -0.3
v 0.3 2.8 -0.5
v 0.3 2.9 -0.3
v 0.3 2.9 -0.5
v 0.3 3.1 -0.3
v 0.3 3.1 -0.5
v 0.3 3.2 -0.2
v 0.3 3.2 -0.3
v 0.3 3.2 -0.5
v 0.3 3.2 -0.6
v 0.3 3.5 -0.2
v 0.3 3.5 -0.3
v 0.3 3.5 -0.5
v 0.3 3.5 -0.6
v 0.3 3.6 -0.3
v 0.3 3.6 -0.5
v 0.6 2.2 -0.3
v 0.6 2.2 -0.5
v 0.6 2.4 -0.3
v 0.6 2.4 -0.5
v 0.6 2.6 -0.3
v 0.6 2.6 -0.5
v 0.6 2.8 -0.3
v 0.6 2.8 -0.5
v 0.2 2.2 -0.3
v 0.2 2.2 -0.5
v 0.2 2.4 -0.3
v 0.2 2.4 -0.5
v 0.2 2.6 -0.3
v 0.2 2.6 -0.5
v 0.2 2.8 -0.3
v 0.2 2.8 -0.5
v 0.5 2 -0.3
v 0.5 2 -0.5
v 0.5 2.4 -0.3
v 0.5 2.4 -0.5
v 0.5 2.5 -0.3
v 0.5 2.5 -0.5
v 0.5 2.8 -0.3
v 0.5 2.8 -0.5
v 0.5 2.9 -0.3
v 0.5 2.9 -0.5
v 0.5 3.1 -0.3
v 0.5 3.1 -0.5
v 0.5 3.2 -0.2
v 0.5 3.2 -0.3
v 0.5 3.2 -0.5
v 0.5 3.2 -0.6
v 0.5 3.5 -0.2
v 0.5 3.5 -0.3
v 0.5 3.5 -0.5
v 0.5 3.5 -0.6
v 0.5 3.6 -0.3
v 0.5 3.6 -0.5
v 0.6 2.4 -0.3
v 0.6 2.4 -0.5
v 0.6 2.5 -0.3
v 0.6 2.5 -0.5
v 0.6 2.8 -0.3
v 0.6 2.8 -0.5
v 0.6 2.9 -0.3
v 0.6 2.9 -0.5
v 0.6 3.2 -0.3
v 0.6 3.2 -0.5
v 0.6 3.5 -0.3
v 0.6 3.5 -0.5
v 0.7 2.2 -0.3
v 0.7 2.2 -0.5
v 0.7 2.4 -0.3
v 0.7 2.4 -0.5
v 0.7 2.6 -0.3
v 0.7 2.6 -0.5
v 0.7 2.8 -0.3
v 0.7 2.8 -0.5
v 0.3 3.2 -0.2
v 0.3 3.5 -0.2
v 0.5 3.2 -0.2
v 0.5 3.5 -0.2
v 0.1 2.2 -0.3
v 0.1 2.4 -0.3
v 0.1 2.6 -0.3
v 0.1 2.8 -0.3
v 0.2 2.2 -0.3
v 0.2 2.4 -0.3
v 0.2 2.5 -0.3
v 0.2 2.6 -0.3
v 0.2 2.8 -0.3
v 0.2 2.9 -0.3
v 0.2 3.2 -0.3
v 0.2 3.5 -0.3
v 0.3 2 -0.3
v 0.3 2.4 -0.3
v 0.3 2.5 -0.3
v 0.3 2.8 -0.3
v 0.3 2.9 -0.3
v 0.3 3.1 -0.3
v 0.3 3.2 -0.3
v 0.3 3.5 -0.3
v 0.3 3.6 -0.3
v 0.5 2 -0.3
v 0.5 2.4 -0.3
v 0.5 2.5 -0.3
v 0.5 2.8 -0.3
v 0.5 2.9 -0.3
v 0.5 3.1 -0.3
v 0.5 3.2 -0.3
v 0.5 3.5 -0.3
v 0.5 3.6 -0.3
v 0.6 2.2 -0.3
v 0.6 2.4 -0.3
v 0.6 2.5 -0.3
v 0.6 2.6 -0.3
v 0.6 2.8 -0.3
v 0.6 2.9 -0.3
v 0.6 3.2 -0.3
v 0.6 3.5 -0.3
v 0.7 2.2 -0.3
v 0.7 2.4 -0.3
v 0.7 2.6 -0.3
v 0.7 2.8 -0.3
v 0.1 2.2 -0.5
v 0.1 2.4 -0.5
v 0.1 2.6 -0.5
v 0.1 2.8 -0.5
v 0.2 2.2 -0.5
v 0.2 2.4 -0.5
v 0.2 2.5 -0.5
v 0.2 2.6 -0.5
v 0.2 2.8 -0.5
v 0.2 2.9 -0.5
v 0.2 3.2 -0.5
v 0.2 3.5 -0.5
v 0.3 2 -0.5
v 0.3 2.4 -0.5
v 0.3 2.5 -0.5
v 0.3 2.8 -0.5
v 0.3 2.9 -0.5
v 0.3 3.1 -0.5
v 0.3 3.2 -0.5
v 0.3 3.5 -0.5
v 0.3 3.6 -0.5
v 0.5 2 -0.5
v 0.5 2.4 -0.5
v 0.5 2.5 -0.5
v 0.5 2.8 -0.5
v 0.5 2.9 -0.5
v 0.5 3.1 -0.5
v 0.5 3.2 -0.5
v 0.5 3.5 -0.5
v 0.5 3.6 -0.5
v 0.6 2.2 -0.5
v 0.6 2.4 -0.5
v 0.6 2.5 -0.5
v 0.6 2.6 -0.5
v 0.6 2.8 -0.5
v 0.6 2.9 -0.5
v 0.6 3.2 -0.5
v 0.6 3.5 -0.5
v 0.7 2.2 -0.5
v 0.7 2.4 -0.5
v 0.7 2.6 -0.5
v 0.7 2.8 -0.5
v 0.3 3.2 -0.6
v 0.3 3.5 -0.6
v 0.5 3.2 -0.6
v 0.5 3.5 -0.6
v 0.3 2 -0.3
v 0.5 2 -0.3
v 0.3 2 -0.5
v 0.5 2 -0.5
v 0.1 2.2 -0.3
v 0.2 2.2 -0.3
v 0.6 2.2 -0.3
v 0.7 2.2 -0.3
v 0.1 2.2 -0.5
v 0.2 2.2 -0.5
v 0.6 2.2 -0.5
v 0.7 2.2 -0.5
v 0.2 2.4 -0.3
v 0.3 2.4 -0.3
v 0.5 2.4 -0.3
v 0.6 2.4 -0.3
v 0.2 2.4 -0.5
v 0.3 2.4 -0.5
v 0.5 2.4 -0.5
v 0.6 2.4 -0.5
v 0.1 2.6 -0.3
v 0.2 2.6 -0.3
v 0.6 2.6 -0.3
v 0.7 2.6 -0.3
v 0.1 2.6 -0.5
v 0.2 2.6 -0.5
v 0.6 2.6 -0.5
v 0.7 2.6 -0.5
v 0.2 2.8 -0.3
v 0.3 2.8 -0.3
v 0.5 2.8 -0.3
v 0.6 2.8 -0.3
v 0.2 2.8 -0.5
v 0.3 2.8 -0.5
v 0.5 2.8 -0.5
v 0.6 2.8 -0.5
v 0.3 3.2 -0.2
v 0.5 3.2 -0.2
v 0.2 3.2 -0.3
v 0.3 3.2 -0.3
v 0.5 3.2 -0.3
v 0.6 3.2 -0.3
v 0.2 3.2 -0.5
v 0.3 3.2 -0.5
v 0.5 3.2 -0.5
v 0.6 3.2 -0.5
v 0.3 3.2 -0.6
v 0.5 3.2 -0.6
v 0.1 2.4 -0.3
v 0.2 2.4 -0.3
v 0.6 2.4 -0.3
v 0.7 2.4 -0.3
v 0.1 2.4 -0.5
v 0.2 2.4 -0.5
v 0.6 2.4 -0.5
v 0.7 2.4 -0.5
v 0.2 2.5 -0.3
v 0.3 2.5 -0.3
v 0.5 2.5 -0.3
v 0.6 2.5 -0.3
v 0.2 2.5 -0.5
v 0.3 2.5 -0.5
v 0.5 2.5 -0.5
v 0.6 2.5 -0.5
v 0.1 2.8 -0.3
v 0.2 2.8 -0.3
v 0.6 2.8 -0.3
v 0.7 2.8 -0.3
v 0.1 2.8 -0.5
v 0.2 2.8 -0.5
v 0.6 2.8 -0.5
v 0.7 2.8 -0.5
v 0.2 2.9 -0.3
v 0.3 2.9 -0.3
v 0.5 2.9 -0.3
v 0.6 2.9 -0.3
v 0.2 2.9 -0.5
v 0.3 2.9 -0.5
v 0.5 2.9 -0.5
v 0.6 2.9 -0.5
v 0.3 3.5 -0.2
v 0.5 3.5 -0.2
v 0.2 3.5 -0.3
v 0.3 3.5 -0.3
v 0.5 3.5 -0.3
v 0.6 3.5 -0.3
v 0.2 3.5 -0.5
v 0.3 3.5 -0.5
v 0.5 3.5 -0.5
v 0.6 3.5 -0.5
v 0.3 3.5 -0.6
v 0.5 3.5 -0.6
v 0.3 3.6 -0.3
v 0.5 3.6 -0.3
v 0.3 3.6 -0.5
v 0.5 3.6 -0.5

# faces
f 3/2/1 2/2/1 1/2/1
f 4/2/1 2/2/1 3/2/1
f 7/2/1 6/2/1 5/2/1
f 8/2/1 6/2/1 7/2/1
f 11/2/1 10/2/1 9/2/1
f 12/2/1 10/2/1 11/2/1
f 15/2/1 14/2/1 13/2/1
f 16/2/1 14/2/1 15/2/1
f 19/1/1 18/1/1 17/1/1
f 20/1/1 18/1/1 19/1/1
f 23/2/1 22/2/1 21/2/1
f 24/2/1 22/2/1 23/2/1
f 27/2/1 26/2/1 25/2/1
f 28/2/1 26/2/1 27/2/1
f 31/2/1 30/2/1 29/2/1
f 32/2/1 30/2/1 31/2/1
f 34/1/1 32/1/1 31/1/1
f 35/1/1 32/1/1 34/1/1
f 37/1/1 34/1/1 33/1/1
f 38/1/1 34/1/1 37/1/1
f 39/1/1 36/1/1 35/1/1
f 40/1/1 36/1/1 39/1/1
f 41/1/1 39/1/1 38/1/1
f 42/1/1 39/1/1 41/1/1
f 45/2/1 44/2/1 43/2/1
f 46/2/1 44/2/1 45/2/1
f 49/2/1 48/2/1 47/2/1
f 50/2/1 48/2/1 49/2/1
f 51/2/2 52/2/2 53/2/2
f 53/2/2 52/2/2 54/2/2
f 55/2/2 56/2/2 57/2/2
f 57/2/2 56/2/2 58/2/2
f 59/2/2 60/2/2 61/2/2
f 61/2/2 60/2/2 62/2/2
f 63/2/2 64/2/2 65/2/2
f 65/2/2 64/2/2 66/2/2
f 67/2/2 68/2/2 69/2/2
f 69/2/2 68/2/2 70/2/2
f 69/1/2 70/1/2 72/1/2
f 72/1/2 70/1/2 73/1/2
f 71/1/2 72/1/2 75/1/2
f 75/1/2 72/1/2 76/1/2
f 73/1/2 74/1/2 77/1/2
f 77/1/2 74/1/2 78/1/2
f 76/1/2 77/1/2 79/1/2
f 79/1/2 77/1/2 80/1/2
f 81/2/2 82/2/2 83/2/2
f 83/2/2 82/2/2 84/2/2
f 85/2/2 86/2/2 87/2/2
f 87/2/2 86/2/2 88/2/2
f 89/1/2 90/1/2 91/1/2
f 91/1/2 90/1/2 92/1/2
f 93/2/2 94/2/2 95/2/2
f 95/2/2 94/2/2 96/2/2
f 97/2/2 98/2/2 99/2/2
f 99/2/2 98/2/2 100/2/2
f 103/1/3 102/1/3 101/1/3
f 104/1/3 102/1/3 103/1/3
f 109/2/3 106/2/3 105/2/3
f 110/2/3 106/2/3 109/2/3
f 112/2/3 108/2/3 107/2/3
f 113/2/3 108/2/3 112/2/3
f 118/2/3 111/2/3 110/2/3
f 119/2/3 111/2/3 118/2/3
f 120/2/3 114/2/3 113/2/3
f 121/2/3 114/2/3 120/2/3
f 123/1/3 116/1/3 115/1/3
f 124/1/3 116/1/3 123/1/3
f 126/2/3 119/2/3 118/2/3
f 126/2/3 122/2/3 121/2/3
f 126/2/3 118/2/3 117/2/3
f 126/2/3 120/2/3 119/2/3
f 126/2/3 121/2/3 120/2/3
f 127/2/3 122/2/3 126/2/3
f 128/2/3 122/2/3 127/2/3
f 129/2/3 122/2/3 128/2/3
f 130/2/3 122/2/3 129/2/3
f 131/1/3 123/1/3 122/1/3
f 131/2/3 122/2/3 130/2/3
f 132/1/3 123/1/3 131/1/3
f 133/1/3 125/1/3 124/1/3
f 134/1/3 125/1/3 133/1/3
f 136/2/3 128/2/3 127/2/3
f 137/2/3 128/2/3 136/2/3
f 139/2/3 130/2/3 129/2/3
f 140/2/3 130/2/3 139/2/3
f 141/1/3 133/1/3 132/1/3
f 142/1/3 133/1/3 141/1/3
f 143/2/3 136/2/3 135/2/3
f 144/2/3 136/2/3 143/2/3
f 145/2/3 139/2/3 138/2/3
f 146/2/3 139/2/3 145/2/3
f 147/2/4 148/2/4 151/2/4
f 151/2/4 148/2/4 152/2/4
f 149/2/4 150/2/4 154/2/4
f 154/2/4 150/2/4 155/2/4
f 152/2/4 153/2/4 160/2/4
f 160/2/4 153/2/4 161/2/4
f 155/2/4 156/2/4 162/2/4
f 162/2/4 156/2/4 163/2/4
f 157/1/4 158/1/4 165/1/4
f 165/1/4 158/1/4 166/1/4
f 160/2/4 161/2/4 168/2/4
f 163/2/4 164/2/4 168/2/4
f 159/2/4 160/2/4 168/2/4
f 161/2/4 162/2/4 168/2/4
f 162/2/4 163/2/4 168/2/4
f 168/2/4 164/2/4 169/2/4
f 169/2/4 164/2/4 170/2/4
f 170/2/4 164/2/4 171/2/4
f 171/2/4 164/2/4 172/2/4
f 164/1/4 165/1/4 173/1/4
f 172/2/4 164/2/4 173/2/4
f 173/1/4 165/1/4 174/1/4
f 166/1/4 167/1/4 175/1/4
f 175/1/4 167/1/4 176/1/4
f 169/2/4 170/2/4 178/2/4
f 178/2/4 170/2/4 179/2/4
f 171/2/4 172/2/4 181/2/4
f 181/2/4 172/2/4 182/2/4
f 174/1/4 175/1/4 183/1/4
f 183/1/4 175/1/4 184/1/4
f 177/2/4 178/2/4 185/2/4
f 185/2/4 178/2/4 186/2/4
f 180/2/4 181/2/4 187/2/4
f 187/2/4 181/2/4 188/2/4
f 189/1/4 190/1/4 191/1/4
f 191/1/4 190/1/4 192/1/4
f 195/2/5 194/2/5 193/2/5
f 196/2/5 194/2/5 195/2/5
f 201/2/5 198/2/5 197/2/5
f 202/2/5 198/2/5 201/2/5
f 203/2/5 200/2/5 199/2/5
f 204/2/5 200/2/5 203/2/5
f 209/2/5 206/2/5 205/2/5
f 210/2/5 206/2/5 209/2/5
f 211/2/5 208/2/5 207/2/5
f 212/2/5 208/2/5 211/2/5
f 217/2/5 214/2/5 213/2/5
f 218/2/5 214/2/5 217/2/5
f 219/2/5 216/2/5 215/2/5
f 220/2/5 216/2/5 219/2/5
f 225/2/5 222/2/5 221/2/5
f 226/2/5 222/2/5 225/2/5
f 227/2/5 224/2/5 223/2/5
f 228/2/5 224/2/5 227/2/5
f 232/1/5 230/1/5 229/1/5
f 233/1/5 230/1/5 232/1/5
f 235/1/5 232/1/5 231/1/5
f 236/1/5 232/1/5 235/1/5
f 237/1/5 234/1/5 233/1/5
f 238/1/5 234/1/5 237/1/5
f 239/1/5 237/1/5 236/1/5
f 240/1/5 237/1/5 239/1/5
f 241/2/6 242/2/6 245/2/6
f 245/2/6 242/2/6 246/2/6
f 243/2/6 244/2/6 247/2/6
f 247/2/6 244/2/6 248/2/6
f 249/2/6 250/2/6 253/2/6
f 253/2/6 250/2/6 254/2/6
f 251/2/6 252/2/6 255/2/6
f 255/2/6 252/2/6 256/2/6
f 257/2/6 258/2/6 261/2/6
f 261/2/6 258/2/6 262/2/6
f 259/2/6 260/2/6 263/2/6
f 263/2/6 260/2/6 264/2/6
f 265/2/6 266/2/6 269/2/6
f 269/2/6 266/2/6 270/2/6
f 267/2/6 268/2/6 271/2/6
f 271/2/6 268/2/6 272/2/6
f 273/1/6 274/1/6 276/1/6
f 276/1/6 274/1/6 277/1/6
f 275/1/6 276/1/6 279/1/6
f 279/1/6 276/1/6 280/1/6
f 277/1/6 278/1/6 281/1/6
f 281/1/6 278/1/6 282/1/6
f 280/1/6 281/1/6 283/1/6
f 283/1/6 281/1/6 284/1/6
f 285/1/6 286/1/6 287/1/6
f 287/1/6 286/1/6 288/1/6
