# Blender v2.80 (sub 75) OBJ File: ''
# www.blender.org
mtllib Wheat_03.mtl
g Wheat_03
v -0.299983 0.400014 0.100011
v -0.299983 0.200014 -0.099989
v -0.299983 0.200014 0.100011
v -0.299983 0.400015 -0.099989
v -0.299983 0.800014 0.100011
v -0.299983 0.600014 -0.099989
v -0.299983 0.600014 0.100011
v -0.299983 0.800014 -0.099989
v -0.199983 0.500014 0.100011
v -0.199983 0.400015 -0.099989
v -0.199983 0.400014 0.100011
v -0.199983 0.500014 -0.099989
v -0.199983 0.900015 0.100011
v -0.199983 0.800014 -0.099989
v -0.199983 0.800014 0.100011
v -0.199983 0.900015 -0.099989
v -0.199983 1.500014 0.100011
v -0.199983 1.200014 -0.099989
v -0.199983 1.200014 0.100011
v -0.199983 1.500014 -0.099989
v -0.099983 0.400014 0.100011
v -0.099983 0.000014 -0.099990
v -0.099983 0.000014 0.100010
v -0.099983 0.400015 -0.099989
v -0.099983 0.800014 0.100011
v -0.099983 0.500014 -0.099989
v -0.099983 0.500014 0.100011
v -0.099983 0.800014 -0.099989
v -0.099983 1.100014 0.100011
v -0.099983 0.900015 -0.099989
v -0.099983 0.900015 0.100011
v -0.099983 1.100014 -0.099989
v -0.099983 1.200014 0.100011
v -0.099983 1.200014 -0.099989
v -0.099983 1.500014 0.200011
v -0.099983 1.200014 0.200011
v -0.099983 1.500014 0.100011
v -0.099983 1.500014 -0.099989
v -0.099983 1.200014 -0.199989
v -0.099983 1.500014 -0.199989
v -0.099983 1.600014 0.100011
v -0.099983 1.600014 -0.099989
v 0.200017 0.400014 0.100011
v 0.200017 0.200014 -0.099989
v 0.200017 0.200014 0.100011
v 0.200017 0.400015 -0.099989
v 0.200017 0.800014 0.100011
v 0.200017 0.600014 -0.099989
v 0.200017 0.600014 0.100011
v 0.200017 0.800014 -0.099989
v -0.199983 0.200014 0.100011
v -0.199983 0.200014 -0.099989
v -0.199983 0.400014 0.100011
v -0.199983 0.400015 -0.099989
v -0.199983 0.600014 0.100011
v -0.199983 0.600014 -0.099989
v -0.199983 0.800014 0.100011
v -0.199983 0.800014 -0.099989
v 0.100017 0.000014 0.100010
v 0.100017 0.000014 -0.099990
v 0.100017 0.400014 0.100011
v 0.100017 0.400015 -0.099989
v 0.100017 0.500014 0.100011
v 0.100017 0.500014 -0.099989
v 0.100017 0.800014 0.100011
v 0.100017 0.800014 -0.099989
v 0.100017 0.900015 0.100011
v 0.100017 0.900015 -0.099989
v 0.100017 1.100014 0.100011
v 0.100017 1.100014 -0.099989
v 0.100017 1.200014 0.100011
v 0.100017 1.200014 -0.099989
v 0.100017 1.200014 0.200011
v 0.100017 1.500014 0.200011
v 0.100017 1.500014 0.100011
v 0.100017 1.200014 -0.199989
v 0.100017 1.500014 -0.099989
v 0.100017 1.500014 -0.199989
v 0.100017 1.600014 0.100011
v 0.100017 1.600014 -0.099989
v 0.200017 0.400014 0.100011
v 0.200017 0.400015 -0.099989
v 0.200017 0.500014 0.100011
v 0.200017 0.500014 -0.099989
v 0.200017 0.800014 0.100011
v 0.200017 0.800014 -0.099989
v 0.200017 0.900015 0.100011
v 0.200017 0.900015 -0.099989
v 0.200017 1.200014 0.100011
v 0.200017 1.200014 -0.099989
v 0.200017 1.500014 0.100011
v 0.200017 1.500014 -0.099989
v 0.300017 0.200014 0.100011
v 0.300017 0.200014 -0.099989
v 0.300017 0.400014 0.100011
v 0.300017 0.400015 -0.099989
v 0.300017 0.600014 0.100011
v 0.300017 0.600014 -0.099989
v 0.300017 0.800014 0.100011
v 0.300017 0.800014 -0.099989
v 0.100017 1.200014 0.200011
v -0.099983 1.500014 0.200011
v -0.099983 1.200014 0.200011
v 0.100017 1.500014 0.200011
v -0.199983 0.200014 0.100011
v -0.299983 0.400014 0.100011
v -0.299983 0.200014 0.100011
v -0.199983 0.400014 0.100011
v -0.199983 0.600014 0.100011
v -0.299983 0.800014 0.100011
v -0.299983 0.600014 0.100011
v -0.199983 0.800014 0.100011
v -0.099983 0.400014 0.100011
v -0.199983 0.500014 0.100011
v -0.099983 0.500014 0.100011
v -0.099983 0.800014 0.100011
v -0.199983 0.900015 0.100011
v -0.099983 0.900015 0.100011
v -0.099983 1.200014 0.100011
v -0.199983 1.500014 0.100011
v -0.199983 1.200014 0.100011
v -0.099983 1.500014 0.100011
v 0.100017 0.000014 0.100010
v -0.099983 1.100014 0.100011
v -0.099983 0.000014 0.100010
v 0.100017 0.400014 0.100011
v 0.100017 0.500014 0.100011
v 0.100017 0.800014 0.100011
v 0.100017 0.900015 0.100011
v 0.100017 1.100014 0.100011
v 0.100017 1.200014 0.100011
v 0.100017 1.500014 0.100011
v -0.099983 1.600014 0.100011
v 0.100017 1.600014 0.100011
v 0.200017 0.400014 0.100011
v 0.200017 0.500014 0.100011
v 0.200017 0.800014 0.100011
v 0.200017 0.900015 0.100011
v 0.200017 1.200014 0.100011
v 0.200017 1.500014 0.100011
v 0.300017 0.200014 0.100011
v 0.200017 0.200014 0.100011
v 0.300017 0.400014 0.100011
v 0.300017 0.600014 0.100011
v 0.200017 0.600014 0.100011
v 0.300017 0.800014 0.100011
v -0.299983 0.200014 -0.099989
v -0.299983 0.400015 -0.099989
v -0.199983 0.200014 -0.099989
v -0.199983 0.400015 -0.099989
v -0.299983 0.600014 -0.099989
v -0.299983 0.800014 -0.099989
v -0.199983 0.600014 -0.099989
v -0.199983 0.800014 -0.099989
v -0.199983 0.500014 -0.099989
v -0.099983 0.400015 -0.099989
v -0.099983 0.500014 -0.099989
v -0.199983 0.900015 -0.099989
v -0.099983 0.800014 -0.099989
v -0.099983 0.900015 -0.099989
v -0.199983 1.200014 -0.099989
v -0.199983 1.500014 -0.099989
v -0.099983 1.200014 -0.099989
v -0.099983 1.500014 -0.099989
v 0.100017 0.000014 -0.099990
v -0.099983 1.100014 -0.099989
v -0.099983 0.000014 -0.099990
v 0.100017 0.400015 -0.099989
v 0.100017 0.500014 -0.099989
v 0.100017 0.800014 -0.099989
v 0.100017 0.900015 -0.099989
v 0.100017 1.100014 -0.099989
v 0.100017 1.200014 -0.099989
v -0.099983 1.600014 -0.099989
v 0.100017 1.500014 -0.099989
v 0.100017 1.600014 -0.099989
v 0.200017 0.400015 -0.099989
v 0.200017 0.500014 -0.099989
v 0.200017 0.800014 -0.099989
v 0.200017 0.900015 -0.099989
v 0.200017 1.200014 -0.099989
v 0.200017 1.500014 -0.099989
v 0.200017 0.200014 -0.099989
v 0.300017 0.200014 -0.099989
v 0.300017 0.400015 -0.099989
v 0.200017 0.600014 -0.099989
v 0.300017 0.600014 -0.099989
v 0.300017 0.800014 -0.099989
v -0.099983 1.200014 -0.199989
v -0.099983 1.500014 -0.199989
v 0.100017 1.200014 -0.199989
v 0.100017 1.500014 -0.199989
v -0.099983 0.000014 -0.099990
v 0.100017 0.000014 0.100010
v -0.099983 0.000014 0.100010
v 0.100017 0.000014 -0.099990
v -0.299983 0.200014 -0.099989
v -0.199983 0.200014 0.100011
v -0.299983 0.200014 0.100011
v -0.199983 0.200014 -0.099989
v 0.200017 0.200014 -0.099989
v 0.300017 0.200014 0.100011
v 0.200017 0.200014 0.100011
v 0.300017 0.200014 -0.099989
v -0.199983 0.400015 -0.099989
v -0.099983 0.400014 0.100011
v -0.199983 0.400014 0.100011
v -0.099983 0.400015 -0.099989
v 0.100017 0.400015 -0.099989
v 0.200017 0.400014 0.100011
v 0.100017 0.400014 0.100011
v 0.200017 0.400015 -0.099989
v -0.299983 0.600014 -0.099989
v -0.199983 0.600014 0.100011
v -0.299983 0.600014 0.100011
v -0.199983 0.600014 -0.099989
v 0.200017 0.600014 -0.099989
v 0.300017 0.600014 0.100011
v 0.200017 0.600014 0.100011
v 0.300017 0.600014 -0.099989
v -0.199983 0.800014 -0.099989
v -0.099983 0.800014 0.100011
v -0.199983 0.800014 0.100011
v -0.099983 0.800014 -0.099989
v 0.100017 0.800014 -0.099989
v 0.200017 0.800014 0.100011
v 0.100017 0.800014 0.100011
v 0.200017 0.800014 -0.099989
v -0.099983 1.200014 0.100011
v 0.100017 1.200014 0.200011
v -0.099983 1.200014 0.200011
v 0.100017 1.200014 0.100011
v -0.199983 1.200014 -0.099989
v -0.199983 1.200014 0.100011
v -0.099983 1.200014 -0.099989
v 0.100017 1.200014 -0.099989
v 0.200017 1.200014 0.100011
v 0.200017 1.200014 -0.099989
v -0.099983 1.200014 -0.199989
v 0.100017 1.200014 -0.199989
v -0.299983 0.400014 0.100011
v -0.199983 0.400014 0.100011
v -0.299983 0.400015 -0.099989
v -0.199983 0.400015 -0.099989
v 0.200017 0.400014 0.100011
v 0.300017 0.400014 0.100011
v 0.200017 0.400015 -0.099989
v 0.300017 0.400015 -0.099989
v -0.199983 0.500014 0.100011
v -0.099983 0.500014 0.100011
v -0.199983 0.500014 -0.099989
v -0.099983 0.500014 -0.099989
v 0.100017 0.500014 0.100011
v 0.200017 0.500014 0.100011
v 0.100017 0.500014 -0.099989
v 0.200017 0.500014 -0.099989
v -0.299983 0.800014 0.100011
v -0.199983 0.800014 0.100011
v -0.299983 0.800014 -0.099989
v -0.199983 0.800014 -0.099989
v 0.200017 0.800014 0.100011
v 0.300017 0.800014 0.100011
v 0.200017 0.800014 -0.099989
v 0.300017 0.800014 -0.099989
v -0.199983 0.900015 0.100011
v -0.099983 0.900015 0.100011
v -0.199983 0.900015 -0.099989
v -0.099983 0.900015 -0.099989
v 0.100017 0.900015 0.100011
v 0.200017 0.900015 0.100011
v 0.100017 0.900015 -0.099989
v 0.200017 0.900015 -0.099989
v -0.099983 1.500014 0.200011
v 0.100017 1.500014 0.200011
v -0.099983 1.500014 0.100011
v 0.100017 1.500014 0.100011
v -0.199983 1.500014 0.100011
v -0.199983 1.500014 -0.099989
v -0.099983 1.500014 -0.099989
v 0.200017 1.500014 0.100011
v 0.100017 1.500014 -0.099989
v 0.200017 1.500014 -0.099989
v -0.099983 1.500014 -0.199989
v 0.100017 1.500014 -0.199989
v -0.099983 1.600014 0.100011
v 0.100017 1.600014 0.100011
v -0.099983 1.600014 -0.099989
v 0.100017 1.600014 -0.099989
vt 0.044922 0.500000
vt 0.044922 0.500000
vt 0.044922 0.500000
vt 0.044922 0.500000
vt 0.044922 0.500000
vt 0.044922 0.500000
vt 0.044922 0.500000
vt 0.044922 0.500000
vt 0.044922 0.500000
vt 0.044922 0.500000
vt 0.044922 0.500000
vt 0.044922 0.500000
vt 0.044922 0.500000
vt 0.044922 0.500000
vt 0.044922 0.500000
vt 0.044922 0.500000
vt 0.017578 0.500000
vt 0.017578 0.500000
vt 0.017578 0.500000
vt 0.017578 0.500000
vt 0.044922 0.500000
vt 0.044922 0.500000
vt 0.044922 0.500000
vt 0.044922 0.500000
vt 0.044922 0.500000
vt 0.044922 0.500000
vt 0.044922 0.500000
vt 0.044922 0.500000
vt 0.044922 0.500000
vt 0.044922 0.500000
vt 0.044922 0.500000
vt 0.044922 0.500000
vt 0.017578 0.500000
vt 0.017578 0.500000
vt 0.017578 0.500000
vt 0.017578 0.500000
vt 0.017578 0.500000
vt 0.017578 0.500000
vt 0.017578 0.500000
vt 0.017578 0.500000
vt 0.017578 0.500000
vt 0.017578 0.500000
vt 0.017578 0.500000
vt 0.017578 0.500000
vt 0.044922 0.500000
vt 0.044922 0.500000
vt 0.044922 0.500000
vt 0.044922 0.500000
vt 0.044922 0.500000
vt 0.044922 0.500000
vt 0.044922 0.500000
vt 0.044922 0.500000
vt 0.044922 0.500000
vt 0.044922 0.500000
vt 0.044922 0.500000
vt 0.044922 0.500000
vt 0.044922 0.500000
vt 0.044922 0.500000
vt 0.044922 0.500000
vt 0.044922 0.500000
vt 0.044922 0.500000
vt 0.044922 0.500000
vt 0.044922 0.500000
vt 0.044922 0.500000
vt 0.044922 0.500000
vt 0.044922 0.500000
vt 0.044922 0.500000
vt 0.044922 0.500000
vt 0.044922 0.500000
vt 0.044922 0.500000
vt 0.044922 0.500000
vt 0.044922 0.500000
vt 0.017578 0.500000
vt 0.017578 0.500000
vt 0.017578 0.500000
vt 0.017578 0.500000
vt 0.017578 0.500000
vt 0.017578 0.500000
vt 0.017578 0.500000
vt 0.017578 0.500000
vt 0.017578 0.500000
vt 0.017578 0.500000
vt 0.017578 0.500000
vt 0.017578 0.500000
vt 0.044922 0.500000
vt 0.044922 0.500000
vt 0.044922 0.500000
vt 0.044922 0.500000
vt 0.044922 0.500000
vt 0.044922 0.500000
vt 0.044922 0.500000
vt 0.044922 0.500000
vt 0.017578 0.500000
vt 0.017578 0.500000
vt 0.017578 0.500000
vt 0.017578 0.500000
vt 0.044922 0.500000
vt 0.044922 0.500000
vt 0.044922 0.500000
vt 0.044922 0.500000
vt 0.044922 0.500000
vt 0.044922 0.500000
vt 0.044922 0.500000
vt 0.044922 0.500000
vt 0.017578 0.500000
vt 0.017578 0.500000
vt 0.017578 0.500000
vt 0.017578 0.500000
vt 0.044922 0.500000
vt 0.044922 0.500000
vt 0.044922 0.500000
vt 0.044922 0.500000
vt 0.044922 0.500000
vt 0.044922 0.500000
vt 0.044922 0.500000
vt 0.044922 0.500000
vt 0.044922 0.500000
vt 0.044922 0.500000
vt 0.044922 0.500000
vt 0.044922 0.500000
vt 0.044922 0.500000
vt 0.044922 0.500000
vt 0.017578 0.500000
vt 0.017578 0.500000
vt 0.017578 0.500000
vt 0.017578 0.500000
vt 0.044922 0.500000
vt 0.044922 0.500000
vt 0.044922 0.500000
vt 0.044922 0.500000
vt 0.044922 0.500000
vt 0.044922 0.500000
vt 0.044922 0.500000
vt 0.017578 0.500000
vt 0.017578 0.500000
vt 0.044922 0.500000
vt 0.017578 0.500000
vt 0.017578 0.500000
vt 0.017578 0.500000
vt 0.017578 0.500000
vt 0.044922 0.500000
vt 0.044922 0.500000
vt 0.044922 0.500000
vt 0.044922 0.500000
vt 0.017578 0.500000
vt 0.017578 0.500000
vt 0.044922 0.500000
vt 0.044922 0.500000
vt 0.044922 0.500000
vt 0.044922 0.500000
vt 0.044922 0.500000
vt 0.044922 0.500000
vt 0.044922 0.500000
vt 0.044922 0.500000
vt 0.044922 0.500000
vt 0.044922 0.500000
vt 0.044922 0.500000
vt 0.044922 0.500000
vt 0.044922 0.500000
vt 0.044922 0.500000
vt 0.044922 0.500000
vt 0.044922 0.500000
vt 0.044922 0.500000
vt 0.044922 0.500000
vt 0.044922 0.500000
vt 0.044922 0.500000
vt 0.017578 0.500000
vt 0.017578 0.500000
vt 0.017578 0.500000
vt 0.017578 0.500000
vt 0.044922 0.500000
vt 0.044922 0.500000
vt 0.044922 0.500000
vt 0.044922 0.500000
vt 0.044922 0.500000
vt 0.044922 0.500000
vt 0.044922 0.500000
vt 0.017578 0.500000
vt 0.017578 0.500000
vt 0.044922 0.500000
vt 0.017578 0.500000
vt 0.017578 0.500000
vt 0.017578 0.500000
vt 0.017578 0.500000
vt 0.044922 0.500000
vt 0.044922 0.500000
vt 0.044922 0.500000
vt 0.044922 0.500000
vt 0.017578 0.500000
vt 0.017578 0.500000
vt 0.044922 0.500000
vt 0.044922 0.500000
vt 0.044922 0.500000
vt 0.044922 0.500000
vt 0.044922 0.500000
vt 0.044922 0.500000
vt 0.017578 0.500000
vt 0.017578 0.500000
vt 0.017578 0.500000
vt 0.017578 0.500000
vt 0.044922 0.500000
vt 0.044922 0.500000
vt 0.044922 0.500000
vt 0.044922 0.500000
vt 0.044922 0.500000
vt 0.044922 0.500000
vt 0.044922 0.500000
vt 0.044922 0.500000
vt 0.044922 0.500000
vt 0.044922 0.500000
vt 0.044922 0.500000
vt 0.044922 0.500000
vt 0.044922 0.500000
vt 0.044922 0.500000
vt 0.044922 0.500000
vt 0.044922 0.500000
vt 0.044922 0.500000
vt 0.044922 0.500000
vt 0.044922 0.500000
vt 0.044922 0.500000
vt 0.044922 0.500000
vt 0.044922 0.500000
vt 0.044922 0.500000
vt 0.044922 0.500000
vt 0.044922 0.500000
vt 0.044922 0.500000
vt 0.044922 0.500000
vt 0.044922 0.500000
vt 0.044922 0.500000
vt 0.044922 0.500000
vt 0.044922 0.500000
vt 0.044922 0.500000
vt 0.044922 0.500000
vt 0.044922 0.500000
vt 0.044922 0.500000
vt 0.044922 0.500000
vt 0.017578 0.500000
vt 0.017578 0.500000
vt 0.017578 0.500000
vt 0.017578 0.500000
vt 0.017578 0.500000
vt 0.017578 0.500000
vt 0.017578 0.500000
vt 0.017578 0.500000
vt 0.017578 0.500000
vt 0.017578 0.500000
vt 0.017578 0.500000
vt 0.017578 0.500000
vt 0.044922 0.500000
vt 0.044922 0.500000
vt 0.044922 0.500000
vt 0.044922 0.500000
vt 0.044922 0.500000
vt 0.044922 0.500000
vt 0.044922 0.500000
vt 0.044922 0.500000
vt 0.044922 0.500000
vt 0.044922 0.500000
vt 0.044922 0.500000
vt 0.044922 0.500000
vt 0.044922 0.500000
vt 0.044922 0.500000
vt 0.044922 0.500000
vt 0.044922 0.500000
vt 0.044922 0.500000
vt 0.044922 0.500000
vt 0.044922 0.500000
vt 0.044922 0.500000
vt 0.044922 0.500000
vt 0.044922 0.500000
vt 0.044922 0.500000
vt 0.044922 0.500000
vt 0.044922 0.500000
vt 0.044922 0.500000
vt 0.044922 0.500000
vt 0.044922 0.500000
vt 0.044922 0.500000
vt 0.044922 0.500000
vt 0.044922 0.500000
vt 0.044922 0.500000
vt 0.017578 0.500000
vt 0.017578 0.500000
vt 0.017578 0.500000
vt 0.017578 0.500000
vt 0.017578 0.500000
vt 0.017578 0.500000
vt 0.017578 0.500000
vt 0.017578 0.500000
vt 0.017578 0.500000
vt 0.017578 0.500000
vt 0.017578 0.500000
vt 0.017578 0.500000
vt 0.017578 0.500000
vt 0.017578 0.500000
vt 0.017578 0.500000
vt 0.017578 0.500000
vn -1.0000 0.0000 0.0000
vn 1.0000 0.0000 0.0000
vn 0.0000 -0.0000 1.0000
vn 0.0000 0.0000 -1.0000
vn 0.0000 -1.0000 -0.0000
vn 0.0000 1.0000 0.0000
usemtl palette.005
s 1
f 1/1/1 2/2/1 3/3/1
f 4/4/1 2/2/1 1/1/1
f 5/5/1 6/6/1 7/7/1
f 8/8/1 6/6/1 5/5/1
f 9/9/1 10/10/1 11/11/1
f 12/12/1 10/10/1 9/9/1
f 13/13/1 14/14/1 15/15/1
f 16/16/1 14/14/1 13/13/1
f 17/17/1 18/18/1 19/19/1
f 20/20/1 18/18/1 17/17/1
f 21/21/1 22/22/1 23/23/1
f 24/24/1 22/22/1 21/21/1
f 25/25/1 26/26/1 27/27/1
f 28/28/1 26/26/1 25/25/1
f 29/29/1 30/30/1 31/31/1
f 32/32/1 30/30/1 29/29/1
f 33/33/1 32/34/1 29/35/1
f 34/36/1 32/34/1 33/33/1
f 35/37/1 33/33/1 36/38/1
f 37/39/1 33/33/1 35/37/1
f 38/40/1 39/41/1 34/36/1
f 40/42/1 39/41/1 38/40/1
f 41/43/1 38/40/1 37/39/1
f 42/44/1 38/40/1 41/43/1
f 43/45/1 44/46/1 45/47/1
f 46/48/1 44/46/1 43/45/1
f 47/49/1 48/50/1 49/51/1
f 50/52/1 48/50/1 47/49/1
f 51/53/2 52/54/2 53/55/2
f 53/55/2 52/54/2 54/56/2
f 55/57/2 56/58/2 57/59/2
f 57/59/2 56/58/2 58/60/2
f 59/61/2 60/62/2 61/63/2
f 61/63/2 60/62/2 62/64/2
f 63/65/2 64/66/2 65/67/2
f 65/67/2 64/66/2 66/68/2
f 67/69/2 68/70/2 69/71/2
f 69/71/2 68/70/2 70/72/2
f 69/73/2 70/74/2 71/75/2
f 71/75/2 70/74/2 72/76/2
f 73/77/2 71/75/2 74/78/2
f 74/78/2 71/75/2 75/79/2
f 72/76/2 76/80/2 77/81/2
f 77/81/2 76/80/2 78/82/2
f 75/79/2 77/81/2 79/83/2
f 79/83/2 77/81/2 80/84/2
f 81/85/2 82/86/2 83/87/2
f 83/87/2 82/86/2 84/88/2
f 85/89/2 86/90/2 87/91/2
f 87/91/2 86/90/2 88/92/2
f 89/93/2 90/94/2 91/95/2
f 91/95/2 90/94/2 92/96/2
f 93/97/2 94/98/2 95/99/2
f 95/99/2 94/98/2 96/100/2
f 97/101/2 98/102/2 99/103/2
f 99/103/2 98/102/2 100/104/2
f 101/105/3 102/106/3 103/107/3
f 104/108/3 102/106/3 101/105/3
f 105/109/3 106/110/3 107/111/3
f 108/112/3 106/110/3 105/109/3
f 109/113/3 110/114/3 111/115/3
f 112/116/3 110/114/3 109/113/3
f 113/117/3 114/118/3 108/112/3
f 115/119/3 114/118/3 113/117/3
f 116/120/3 117/121/3 112/116/3
f 118/122/3 117/121/3 116/120/3
f 119/123/3 120/124/3 121/125/3
f 122/126/3 120/124/3 119/123/3
f 123/127/3 115/119/3 113/117/3
f 123/127/3 124/128/3 118/122/3
f 123/127/3 113/117/3 125/129/3
f 123/127/3 116/120/3 115/119/3
f 123/127/3 118/122/3 116/120/3
f 126/130/3 124/128/3 123/127/3
f 127/131/3 124/128/3 126/130/3
f 128/132/3 124/128/3 127/131/3
f 129/133/3 124/128/3 128/132/3
f 130/134/3 119/123/3 124/135/3
f 130/136/3 124/128/3 129/133/3
f 131/137/3 119/123/3 130/134/3
f 132/138/3 133/139/3 122/126/3
f 134/140/3 133/139/3 132/138/3
f 135/141/3 127/131/3 126/130/3
f 136/142/3 127/131/3 135/141/3
f 137/143/3 129/133/3 128/132/3
f 138/144/3 129/133/3 137/143/3
f 139/145/3 132/138/3 131/137/3
f 140/146/3 132/138/3 139/145/3
f 141/147/3 135/141/3 142/148/3
f 143/149/3 135/141/3 141/147/3
f 144/150/3 137/143/3 145/151/3
f 146/152/3 137/143/3 144/150/3
f 147/153/4 148/154/4 149/155/4
f 149/155/4 148/154/4 150/156/4
f 151/157/4 152/158/4 153/159/4
f 153/159/4 152/158/4 154/160/4
f 150/156/4 155/161/4 156/162/4
f 156/162/4 155/161/4 157/163/4
f 154/160/4 158/164/4 159/165/4
f 159/165/4 158/164/4 160/166/4
f 161/167/4 162/168/4 163/169/4
f 163/169/4 162/168/4 164/170/4
f 156/162/4 157/163/4 165/171/4
f 160/166/4 166/172/4 165/171/4
f 167/173/4 156/162/4 165/171/4
f 157/163/4 159/165/4 165/171/4
f 159/165/4 160/166/4 165/171/4
f 165/171/4 166/172/4 168/174/4
f 168/174/4 166/172/4 169/175/4
f 169/175/4 166/172/4 170/176/4
f 170/176/4 166/172/4 171/177/4
f 166/178/4 163/169/4 172/179/4
f 171/177/4 166/172/4 172/180/4
f 172/179/4 163/169/4 173/181/4
f 164/170/4 174/182/4 175/183/4
f 175/183/4 174/182/4 176/184/4
f 168/174/4 169/175/4 177/185/4
f 177/185/4 169/175/4 178/186/4
f 170/176/4 171/177/4 179/187/4
f 179/187/4 171/177/4 180/188/4
f 173/181/4 175/183/4 181/189/4
f 181/189/4 175/183/4 182/190/4
f 183/191/4 177/185/4 184/192/4
f 184/192/4 177/185/4 185/193/4
f 186/194/4 179/187/4 187/195/4
f 187/195/4 179/187/4 188/196/4
f 189/197/4 190/198/4 191/199/4
f 191/199/4 190/198/4 192/200/4
f 193/201/5 194/202/5 195/203/5
f 196/204/5 194/202/5 193/201/5
f 197/205/5 198/206/5 199/207/5
f 200/208/5 198/206/5 197/205/5
f 201/209/5 202/210/5 203/211/5
f 204/212/5 202/210/5 201/209/5
f 205/213/5 206/214/5 207/215/5
f 208/216/5 206/214/5 205/213/5
f 209/217/5 210/218/5 211/219/5
f 212/220/5 210/218/5 209/217/5
f 213/221/5 214/222/5 215/223/5
f 216/224/5 214/222/5 213/221/5
f 217/225/5 218/226/5 219/227/5
f 220/228/5 218/226/5 217/225/5
f 221/229/5 222/230/5 223/231/5
f 224/232/5 222/230/5 221/229/5
f 225/233/5 226/234/5 227/235/5
f 228/236/5 226/234/5 225/233/5
f 229/237/5 230/238/5 231/239/5
f 232/240/5 230/238/5 229/237/5
f 233/241/5 229/237/5 234/242/5
f 235/243/5 229/237/5 233/241/5
f 236/244/5 237/245/5 232/240/5
f 238/246/5 237/245/5 236/244/5
f 239/247/5 236/244/5 235/243/5
f 240/248/5 236/244/5 239/247/5
f 241/249/6 242/250/6 243/251/6
f 243/251/6 242/250/6 244/252/6
f 245/253/6 246/254/6 247/255/6
f 247/255/6 246/254/6 248/256/6
f 249/257/6 250/258/6 251/259/6
f 251/259/6 250/258/6 252/260/6
f 253/261/6 254/262/6 255/263/6
f 255/263/6 254/262/6 256/264/6
f 257/265/6 258/266/6 259/267/6
f 259/267/6 258/266/6 260/268/6
f 261/269/6 262/270/6 263/271/6
f 263/271/6 262/270/6 264/272/6
f 265/273/6 266/274/6 267/275/6
f 267/275/6 266/274/6 268/276/6
f 269/277/6 270/278/6 271/279/6
f 271/279/6 270/278/6 272/280/6
f 273/281/6 274/282/6 275/283/6
f 275/283/6 274/282/6 276/284/6
f 277/285/6 275/283/6 278/286/6
f 278/286/6 275/283/6 279/287/6
f 276/284/6 280/288/6 281/289/6
f 281/289/6 280/288/6 282/290/6
f 279/287/6 281/289/6 283/291/6
f 283/291/6 281/289/6 284/292/6
f 285/293/6 286/294/6 287/295/6
f 287/295/6 286/294/6 288/296/6
